<svg width="62" height="50" viewBox="0 0 62 50" fill="none" xmlns="http://www.w3.org/2000/svg">
<g clip-path="url(#clip0_219_81)">
<path d="M8.54431 30.1855C9.49368 28.3984 9.20306 26.2012 7.81774 24.7363C5.75431 22.5488 4.64993 19.9219 4.64993 17.1875C4.64993 10.9863 10.8306 4.6875 20.1499 4.6875C29.4693 4.6875 35.6499 10.9863 35.6499 17.1875C35.6499 23.3887 29.4693 29.6875 20.1499 29.6875C18.8809 29.6875 17.6506 29.5605 16.4881 29.3359C15.4806 29.1406 14.4343 29.2773 13.514 29.7461C13.1168 29.9512 12.7099 30.1465 12.2934 30.332C10.7434 31.0352 9.10618 31.6504 7.45931 32.0898C7.73056 31.6406 7.98243 31.2012 8.22462 30.7617C8.33118 30.5762 8.43774 30.3809 8.53462 30.1855H8.54431ZM-6.71805e-05 17.1875C-6.71805e-05 21.2695 1.66618 25.0098 4.4465 27.959C4.35931 28.125 4.26243 28.3008 4.17525 28.457C3.17743 30.2539 2.01493 32.0215 0.62962 33.5449C-0.00975468 34.2285 -0.174442 35.2246 0.183995 36.0742C0.561808 36.9434 1.39493 37.5 2.32493 37.5C6.49056 37.5 10.7046 36.2012 14.2115 34.5996C14.6765 34.3848 15.1415 34.1602 15.5871 33.9355C17.0499 34.2285 18.5806 34.375 20.1499 34.375C31.2809 34.375 40.2999 26.6797 40.2999 17.1875C40.2999 7.69531 31.2809 0 20.1499 0C9.01899 0 -6.71805e-05 7.69531 -6.71805e-05 17.1875ZM41.8499 46.875C43.4193 46.875 44.9402 46.7188 46.4127 46.4355C46.8584 46.6602 47.3234 46.8848 47.7884 47.0996C51.2952 48.7012 55.5093 50 59.6749 50C60.6049 50 61.4381 49.4434 61.8062 48.584C62.1743 47.7246 61.9999 46.7285 61.3606 46.0547C59.9849 44.5313 58.8224 42.7637 57.8149 40.9668C57.7277 40.8008 57.6309 40.6348 57.5437 40.4687C60.3337 37.5098 61.9999 33.7695 61.9999 29.6875C61.9999 20.4687 53.4846 12.9395 42.7993 12.5195C43.1965 14.0039 43.3999 15.5664 43.3999 17.1875V17.2461C51.8474 17.9004 57.3499 23.8379 57.3499 29.6875C57.3499 32.4219 56.2456 35.0488 54.1821 37.2266C52.7968 38.6914 52.5062 40.8984 53.4556 42.6758C53.5621 42.8711 53.6687 43.0664 53.7656 43.252C54.0077 43.6914 54.2693 44.1309 54.5309 44.5801C52.884 44.1406 51.2468 43.5352 49.6968 42.8223C49.2802 42.6367 48.8734 42.4414 48.4762 42.2363C47.5559 41.7676 46.5096 41.6309 45.5021 41.8262C44.3299 42.0605 43.1093 42.1777 41.8402 42.1777C35.8631 42.1777 31.184 39.5898 28.5877 36.0938C27.0377 36.6211 25.4102 37.0117 23.744 37.2461C27.0281 42.9492 33.9062 46.875 41.8499 46.875Z" fill="#2A323C"/>
</g>
<defs>
<clipPath id="clip0_219_81">
<rect width="62" height="50" fill="white"/>
</clipPath>
</defs>
</svg>
