<svg width="322" height="322" viewBox="0 0 322 322" fill="none" xmlns="http://www.w3.org/2000/svg">
<path d="M311.6 55.6001C324.1 43.1001 324.1 22.8 311.6 10.3C299.1 -2.19995 278.8 -2.19995 266.3 10.3L161 115.7L55.6 10.4C43.1 -2.09995 22.8 -2.09995 10.3 10.4C-2.20001 22.9 -2.20001 43.2 10.3 55.7L115.7 161L10.4 266.4C-2.10001 278.9 -2.10001 299.2 10.4 311.7C22.9 324.2 43.2 324.2 55.7 311.7L161 206.3L266.4 311.6C278.9 324.1 299.2 324.1 311.7 311.6C324.2 299.1 324.2 278.8 311.7 266.3L206.3 161L311.6 55.6001Z" fill="#2A323C"/>
</svg>
