<svg width="46" height="46" viewBox="0 0 46 46" fill="none" xmlns="http://www.w3.org/2000/svg">
<path d="M23 46C29.1 46 34.9501 43.5768 39.2635 39.2635C43.5768 34.9501 46 29.1 46 23C46 16.9 43.5768 11.0499 39.2635 6.73654C34.9501 2.42321 29.1 0 23 0C16.9 0 11.0499 2.42321 6.73654 6.73654C2.42321 11.0499 0 16.9 0 23C0 29.1 2.42321 34.9501 6.73654 39.2635C11.0499 43.5768 16.9 46 23 46ZM27.5551 29.2082L14.5906 34.1945C12.8477 34.8684 11.1316 33.1523 11.8055 31.4094L16.7918 18.4449C17.0883 17.6812 17.6812 17.0883 18.4449 16.7918L31.4094 11.8055C33.1523 11.1316 34.8684 12.8477 34.1945 14.5906L29.2082 27.5551C28.9207 28.3188 28.3188 28.9117 27.5551 29.2082ZM25.875 23C25.875 22.2375 25.5721 21.5062 25.0329 20.9671C24.4938 20.4279 23.7625 20.125 23 20.125C22.2375 20.125 21.5062 20.4279 20.9671 20.9671C20.4279 21.5062 20.125 22.2375 20.125 23C20.125 23.7625 20.4279 24.4938 20.9671 25.0329C21.5062 25.5721 22.2375 25.875 23 25.875C23.7625 25.875 24.4938 25.5721 25.0329 25.0329C25.5721 24.4938 25.875 23.7625 25.875 23Z" fill="#2A323C"/>
</svg>
