<svg width="800" height="800" viewBox="0 0 800 800" fill="none" xmlns="http://www.w3.org/2000/svg">
<path d="M400 575C358.65 575 325 608.65 325 650C325 691.35 358.65 725 400 725C441.35 725 475 691.35 475 650C475 608.65 441.35 575 400 575Z" fill="#2A323C"/>
<path d="M400 325C358.65 325 325 358.65 325 400C325 441.35 358.65 475 400 475C441.35 475 475 441.35 475 400C475 358.65 441.35 325 400 325Z" fill="#2A323C"/>
<path d="M400 75C358.65 75 325 108.65 325 150C325 191.35 358.65 225 400 225C441.35 225 475 191.35 475 150C475 108.65 441.35 75 400 75Z" fill="#2A323C"/>
</svg>
