<svg width="99" height="38" viewBox="0 0 99 38" fill="none" xmlns="http://www.w3.org/2000/svg">
<g filter="url(#filter0_i_31_148)">
<path d="M19.1094 31.3047C19.1094 32.3672 19.0391 33.2734 18.8984 34.0234C18.7734 34.7734 18.5938 35.3828 18.3594 35.8516C18.125 36.3203 17.8359 36.6641 17.4922 36.8828C17.1641 37.1016 16.8047 37.2109 16.4141 37.2109C16.1172 37.2109 15.7891 37.1094 15.4297 36.9062C15.0703 36.7031 14.7266 36.4531 14.3984 36.1562C14.0859 35.8594 13.8203 35.5547 13.6016 35.2422C13.3984 34.9297 13.2969 34.6562 13.2969 34.4219C13.2969 34.2656 13.3125 34.1641 13.3438 34.1172C13.3906 34.0859 13.4453 34.0703 13.5078 34.0703C13.5859 34.0859 13.6719 34.1094 13.7656 34.1406C13.875 34.1719 13.9922 34.1875 14.1172 34.1875C14.5547 34.1875 14.8672 33.9141 15.0547 33.3672C15.2578 32.8047 15.3594 31.9141 15.3594 30.6953V4.1875C13.875 4.3125 12.4453 4.57813 11.0703 4.98438C9.69531 5.375 8.48438 5.96875 7.4375 6.76562C6.39062 7.5625 5.55469 8.60156 4.92969 9.88281C4.30469 11.1484 3.99219 12.7109 3.99219 14.5703C3.99219 15.3984 4.07031 16.1484 4.22656 16.8203C4.39844 17.4766 4.61719 18.0703 4.88281 18.6016C5.14844 19.1328 5.4375 19.6016 5.75 20.0078C6.07812 20.4141 6.39844 20.7734 6.71094 21.0859C6.97656 21.0078 7.16406 21.0391 7.27344 21.1797C7.38281 21.3203 7.4375 21.5156 7.4375 21.7656C7.4375 22.0781 7.36719 22.4062 7.22656 22.75C7.10156 23.0781 6.92969 23.3828 6.71094 23.6641C6.49219 23.9297 6.24219 24.1562 5.96094 24.3438C5.69531 24.5156 5.42188 24.6016 5.14062 24.6016C5.01562 24.6016 4.89062 24.5859 4.76562 24.5547C4.65625 24.5234 4.53906 24.4531 4.41406 24.3438C4.07031 24.0938 3.65625 23.6875 3.17188 23.125C2.6875 22.5469 2.22656 21.8359 1.78906 20.9922C1.35156 20.1484 0.976562 19.1875 0.664062 18.1094C0.351562 17.0156 0.195312 15.8359 0.195312 14.5703C0.195312 12.2578 0.625 10.2188 1.48438 8.45312C2.34375 6.6875 3.53906 5.21094 5.07031 4.02344C6.60156 2.82031 8.41406 1.91406 10.5078 1.30469C12.6172 0.695312 14.9219 0.390625 17.4219 0.390625C18 0.390625 18.6953 0.398437 19.5078 0.414062C20.3359 0.414062 21.1562 0.421875 21.9688 0.4375C22.7812 0.453125 23.5078 0.46875 24.1484 0.484375C24.8047 0.484375 25.25 0.484375 25.4844 0.484375C25.6875 0.484375 25.8516 0.46875 25.9766 0.4375C26.1172 0.390625 26.2266 0.34375 26.3047 0.296875C26.3984 0.25 26.4688 0.210937 26.5156 0.179688C26.5625 0.132812 26.6016 0.109375 26.6328 0.109375C26.7109 0.109375 26.7812 0.164062 26.8438 0.273438C26.9219 0.367188 26.9844 0.492187 27.0312 0.648438C27.0938 0.789062 27.1406 0.953125 27.1719 1.14062C27.2031 1.32812 27.2188 1.51562 27.2188 1.70312C27.2188 1.98438 27.1797 2.28125 27.1016 2.59375C27.0234 2.89063 26.9062 3.16406 26.75 3.41406C26.5938 3.64844 26.3984 3.84375 26.1641 4C25.9297 4.15625 25.6562 4.23438 25.3438 4.23438C25.1719 4.23438 24.8516 4.23438 24.3828 4.23438C23.9297 4.21875 23.4062 4.20313 22.8125 4.1875C22.2188 4.17187 21.5938 4.15625 20.9375 4.14062C20.2812 4.125 19.6719 4.10938 19.1094 4.09375V31.3047ZM35.4219 35.3359C34.8594 35.3359 34.2812 35.25 33.6875 35.0781C33.1094 34.9062 32.5781 34.6094 32.0938 34.1875C31.625 33.7656 31.2344 33.2109 30.9219 32.5234C30.625 31.8203 30.4766 30.9375 30.4766 29.875C30.4766 28.3281 30.6797 26.6953 31.0859 24.9766C31.5078 23.2422 32.1094 21.3359 32.8906 19.2578H29.2344H28.6953C28.6797 19.7266 28.6484 20.3203 28.6016 21.0391C28.5703 21.7578 28.5078 22.5234 28.4141 23.3359C28.3203 24.1484 28.1953 24.9688 28.0391 25.7969C27.8984 26.625 27.7188 27.3906 27.5 28.0938C27.3438 28.5938 27.0938 28.8828 26.75 28.9609C26.4219 29.0391 26.0938 28.9844 25.7656 28.7969C25.4375 28.5938 25.1719 28.3047 24.9688 27.9297C24.7656 27.5547 24.7188 27.1641 24.8281 26.7578C24.9531 26.2734 25.0625 25.6875 25.1562 25C25.25 24.2969 25.3203 23.5625 25.3672 22.7969C25.4297 22.0156 25.4766 21.2422 25.5078 20.4766C25.5391 19.6953 25.5625 19 25.5781 18.3906C24.9844 18.0625 24.4922 17.6484 24.1016 17.1484C23.7109 16.6328 23.5156 16.0234 23.5156 15.3203C23.5156 14.9922 23.5781 14.6953 23.7031 14.4297C23.8438 14.1484 24.0234 13.9141 24.2422 13.7266C24.4609 13.5234 24.7188 13.375 25.0156 13.2812C25.3125 13.1719 25.6172 13.1172 25.9297 13.1172C26.2109 13.1172 26.5 13.1562 26.7969 13.2344C27.1094 13.3125 27.3984 13.4531 27.6641 13.6562C27.9453 13.8594 28.1953 14.125 28.4141 14.4531C28.6328 14.7812 28.8125 15.1875 28.9531 15.6719C29.3438 15.7188 29.6719 15.7578 29.9375 15.7891C30.2188 15.8047 30.4531 15.8203 30.6406 15.8359C30.8281 15.8516 30.9844 15.8594 31.1094 15.8594C31.2344 15.8594 31.3594 15.8594 31.4844 15.8594H33.9922C34.1328 15.8594 34.3359 15.9453 34.6016 16.1172C34.8828 16.2891 35.1562 16.5156 35.4219 16.7969C35.6875 17.0625 35.9062 17.3516 36.0781 17.6641C36.2656 17.9766 36.3359 18.2734 36.2891 18.5547C36.2891 18.6484 36.2344 18.875 36.125 19.2344C36.0156 19.5938 35.8828 20.0469 35.7266 20.5938C35.5703 21.1406 35.3984 21.7734 35.2109 22.4922C35.0234 23.1953 34.8516 23.9375 34.6953 24.7188C34.5391 25.5 34.4062 26.3125 34.2969 27.1562C34.1875 27.9844 34.1328 28.7969 34.1328 29.5938C34.1328 29.9219 34.1719 30.2422 34.25 30.5547C34.3281 30.8672 34.4453 31.1484 34.6016 31.3984C34.7578 31.6328 34.9531 31.8203 35.1875 31.9609C35.4375 32.1016 35.7266 32.1719 36.0547 32.1719C36.6016 32.1719 37.0703 32 37.4609 31.6562C37.8516 31.3125 38.1797 30.8828 38.4453 30.3672C38.7109 29.8516 38.9219 29.2969 39.0781 28.7031C39.25 28.0938 39.3906 27.5234 39.5 26.9922C39.5938 26.4922 39.75 26.1328 39.9688 25.9141C40.1875 25.6797 40.4141 25.5625 40.6484 25.5625C40.8359 25.5625 41.0312 25.625 41.2344 25.75C41.4375 25.8594 41.6172 26.0078 41.7734 26.1953C41.9453 26.3828 42.0781 26.5938 42.1719 26.8281C42.2812 27.0625 42.3359 27.2969 42.3359 27.5312C42.3359 27.6094 42.3281 27.6719 42.3125 27.7188C42.2969 27.7656 42.2891 27.8125 42.2891 27.8594C42.0703 28.6562 41.7812 29.4922 41.4219 30.3672C41.0781 31.2422 40.6328 32.0469 40.0859 32.7812C39.5391 33.5156 38.8828 34.125 38.1172 34.6094C37.3516 35.0938 36.4531 35.3359 35.4219 35.3359ZM39.7344 18.0156C39.7344 17.5625 39.6953 17.2344 39.6172 17.0312C39.5547 16.8281 39.5234 16.6406 39.5234 16.4688C39.5234 16.2344 39.6484 16.0469 39.8984 15.9062C40.1484 15.75 40.4453 15.6719 40.7891 15.6719C41.5859 15.6719 42.2109 15.8828 42.6641 16.3047C43.1328 16.7109 43.3672 17.2031 43.3672 17.7812V19.9375C43.6953 19.2656 44.0469 18.6406 44.4219 18.0625C44.8125 17.4844 45.2266 16.9844 45.6641 16.5625C46.1172 16.125 46.5938 15.7891 47.0938 15.5547C47.6094 15.3047 48.1641 15.1797 48.7578 15.1797C49.5547 15.1797 50.2109 15.3281 50.7266 15.625C51.2422 15.9219 51.6484 16.3047 51.9453 16.7734C52.2422 17.2422 52.4453 17.7656 52.5547 18.3438C52.6797 18.9219 52.7422 19.4844 52.7422 20.0312V29.9688C52.7422 30.0781 52.75 30.2578 52.7656 30.5078C52.7812 30.7422 52.8281 30.9844 52.9062 31.2344C52.9844 31.4844 53.1016 31.7031 53.2578 31.8906C53.4297 32.0781 53.6719 32.1719 53.9844 32.1719C54.4688 32.1719 54.8828 32 55.2266 31.6562C55.5859 31.3125 55.8906 30.8828 56.1406 30.3672C56.4062 29.8516 56.6172 29.2969 56.7734 28.7031C56.9453 28.0938 57.0859 27.5234 57.1953 26.9922C57.2891 26.4922 57.4453 26.1328 57.6641 25.9141C57.8828 25.6797 58.1094 25.5625 58.3438 25.5625C58.5312 25.5625 58.7266 25.625 58.9297 25.75C59.1328 25.8594 59.3125 26.0078 59.4688 26.1953C59.6406 26.3828 59.7734 26.5938 59.8672 26.8281C59.9766 27.0625 60.0312 27.2969 60.0312 27.5312C60.0312 27.5625 60.0312 27.6016 60.0312 27.6484C60.0312 27.6953 60.0156 27.7656 59.9844 27.8594C59.7812 28.6562 59.5 29.4922 59.1406 30.3672C58.7969 31.2422 58.3438 32.0469 57.7812 32.7812C57.2344 33.5156 56.5781 34.125 55.8125 34.6094C55.0469 35.0938 54.1484 35.3359 53.1172 35.3359C52.4766 35.3359 51.9062 35.2109 51.4062 34.9609C50.9219 34.7266 50.5 34.4062 50.1406 34C49.7969 33.5938 49.5312 33.1172 49.3438 32.5703C49.1719 32.0234 49.0859 31.4453 49.0859 30.8359V21.0859C49.0859 20.7109 49.0781 20.3594 49.0625 20.0312C49.0469 19.7031 49 19.4141 48.9219 19.1641C48.8594 18.9141 48.7578 18.7188 48.6172 18.5781C48.4922 18.4219 48.3125 18.3438 48.0781 18.3438C47.7344 18.3438 47.3125 18.5781 46.8125 19.0469C46.3125 19.5156 45.8203 20.125 45.3359 20.875C44.8516 21.625 44.4219 22.4766 44.0469 23.4297C43.6875 24.3672 43.4609 25.3125 43.3672 26.2656V33.2734C43.3672 33.5078 43.3594 33.75 43.3438 34C43.3438 34.2344 43.2969 34.4453 43.2031 34.6328C43.125 34.8359 42.9922 35 42.8047 35.125C42.6328 35.2656 42.375 35.3359 42.0312 35.3359C41.7969 35.3359 41.5391 35.3047 41.2578 35.2422C40.9922 35.1953 40.7422 35.0938 40.5078 34.9375C40.2891 34.7969 40.1016 34.5859 39.9453 34.3047C39.8047 34.0391 39.7344 33.6797 39.7344 33.2266V18.0156ZM62.4453 35.3359C61.5078 35.3359 60.6562 35.1719 59.8906 34.8438C59.125 34.5156 58.4688 34.0312 57.9219 33.3906C57.3906 32.7344 56.9766 31.9297 56.6797 30.9766C56.3984 30.0078 56.2578 28.8906 56.2578 27.625C56.2578 25.7812 56.5156 24.1406 57.0312 22.7031C57.5469 21.25 58.25 20.0078 59.1406 18.9766C60.0312 17.9297 61.0625 17.1016 62.2344 16.4922C63.4062 15.8672 64.6484 15.4609 65.9609 15.2734V4.42188C65.9609 4.07812 65.9297 3.80469 65.8672 3.60156C65.8203 3.39844 65.7656 3.24219 65.7031 3.13281C65.6562 3.00781 65.6016 2.91406 65.5391 2.85156C65.4922 2.77344 65.4688 2.69531 65.4688 2.61719C65.4688 2.52344 65.5156 2.44531 65.6094 2.38281C65.7031 2.32031 65.8281 2.26562 65.9844 2.21875C66.1406 2.17188 66.3047 2.14063 66.4766 2.125C66.6641 2.09375 66.8438 2.07812 67.0156 2.07812C67.8125 2.07812 68.4375 2.28906 68.8906 2.71094C69.3594 3.11719 69.5938 3.60937 69.5938 4.1875V29.9688C69.5938 30.2344 69.625 30.5 69.6875 30.7656C69.75 31.0156 69.8438 31.25 69.9688 31.4688C70.1094 31.6719 70.2812 31.8438 70.4844 31.9844C70.7031 32.1094 70.9531 32.1719 71.2344 32.1719C71.7188 32.1719 72.1328 32 72.4766 31.6562C72.8359 31.3125 73.1406 30.8828 73.3906 30.3672C73.6562 29.8516 73.8672 29.2969 74.0234 28.7031C74.1953 28.0938 74.3359 27.5234 74.4453 26.9922C74.5391 26.4922 74.6953 26.1328 74.9141 25.9141C75.1328 25.6797 75.3594 25.5625 75.5938 25.5625C75.7812 25.5625 75.9766 25.625 76.1797 25.75C76.3828 25.8594 76.5625 26.0078 76.7188 26.1953C76.8906 26.3828 77.0234 26.5938 77.1172 26.8281C77.2266 27.0625 77.2812 27.2969 77.2812 27.5312C77.2812 27.5625 77.2812 27.6016 77.2812 27.6484C77.2812 27.6953 77.2656 27.7656 77.2344 27.8594C77.0312 28.6562 76.75 29.4922 76.3906 30.3672C76.0469 31.2422 75.5938 32.0469 75.0312 32.7812C74.4844 33.5156 73.8281 34.125 73.0625 34.6094C72.2969 35.0938 71.3984 35.3359 70.3672 35.3359C69.5391 35.3359 68.8125 35.1641 68.1875 34.8203C67.5625 34.4766 67.0703 34.0234 66.7109 33.4609C66.1797 34.0078 65.5625 34.4531 64.8594 34.7969C64.1719 35.1562 63.3672 35.3359 62.4453 35.3359ZM63.1719 32.1719C63.7969 32.1719 64.3359 31.9922 64.7891 31.6328C65.2578 31.2734 65.6484 30.8281 65.9609 30.2969V18.4375C65.1797 18.5781 64.4219 18.8438 63.6875 19.2344C62.9688 19.6094 62.3281 20.1406 61.7656 20.8281C61.2188 21.5156 60.7812 22.3906 60.4531 23.4531C60.125 24.5 59.9609 25.7734 59.9609 27.2734C59.9609 28.1484 60.0469 28.8984 60.2188 29.5234C60.4062 30.1328 60.6406 30.6328 60.9219 31.0234C61.2188 31.4141 61.5625 31.7031 61.9531 31.8906C62.3438 32.0781 62.75 32.1719 63.1719 32.1719ZM77.375 27.4141C77.25 27.9141 77.0156 28.2266 76.6719 28.3516C76.3281 28.4609 75.9844 28.4453 75.6406 28.3047C75.3125 28.1641 75.0312 27.9219 74.7969 27.5781C74.5781 27.2344 74.5156 26.8594 74.6094 26.4531C74.8438 25.3906 75.1797 24.2188 75.6172 22.9375C76.0703 21.6406 76.5156 20.3516 76.9531 19.0703C76.7188 18.7109 76.5312 18.3516 76.3906 17.9922C76.25 17.6172 76.1797 17.2266 76.1797 16.8203C76.1797 16.4141 76.3281 15.9922 76.625 15.5547C76.9375 15.1016 77.3047 14.6875 77.7266 14.3125C78.1641 13.9375 78.6094 13.6328 79.0625 13.3984C79.5312 13.1484 79.9297 13.0234 80.2578 13.0234C80.8359 13.0234 81.2656 13.2188 81.5469 13.6094C81.8438 14 81.9922 14.5234 81.9922 15.1797C81.9922 15.5391 81.9297 15.8984 81.8047 16.2578C81.6953 16.6016 81.5703 16.9297 81.4297 17.2422C81.2891 17.5391 81.1562 17.7969 81.0312 18.0156C80.9219 18.2344 80.8594 18.375 80.8438 18.4375C81.4062 19.4375 81.9922 20.3203 82.6016 21.0859C83.2109 21.8516 83.7656 22.6094 84.2656 23.3594C84.7812 24.1094 85.2031 24.9062 85.5312 25.75C85.8594 26.5938 86.0234 27.5859 86.0234 28.7266C86.0234 29.0078 86 29.2969 85.9531 29.5938C85.9219 29.8906 85.8672 30.1719 85.7891 30.4375C86.3516 30.3281 86.8438 30.1562 87.2656 29.9219C87.7031 29.6875 88.0781 29.4219 88.3906 29.125C88.7188 28.8125 88.9844 28.4766 89.1875 28.1172C89.4062 27.7578 89.5859 27.3828 89.7266 26.9922C89.8984 26.5391 90.0703 26.2109 90.2422 26.0078C90.4141 25.8047 90.6094 25.7031 90.8281 25.7031C91.0312 25.7031 91.2344 25.7734 91.4375 25.9141C91.6562 26.0391 91.8438 26.2031 92 26.4062C92.1719 26.6094 92.3047 26.8203 92.3984 27.0391C92.5078 27.2578 92.5625 27.4531 92.5625 27.625C92.5625 27.8594 92.5 28.1406 92.375 28.4688C92.25 28.7969 92.0781 29.1328 91.8594 29.4766C91.6562 29.8203 91.4219 30.1562 91.1562 30.4844C90.8906 30.7969 90.6172 31.0703 90.3359 31.3047C89.5859 31.9141 88.7031 32.4297 87.6875 32.8516C86.6719 33.2578 85.4141 33.5156 83.9141 33.625C83.3359 34.125 82.6484 34.5312 81.8516 34.8438C81.0703 35.1719 80.1875 35.3359 79.2031 35.3359C78.7031 35.3359 78.1875 35.2734 77.6562 35.1484C77.1406 35.0234 76.6406 34.8594 76.1562 34.6562C75.6875 34.4688 75.2578 34.2578 74.8672 34.0234C74.4766 33.7891 74.1641 33.5547 73.9297 33.3203C73.3359 32.7578 72.9531 32.1953 72.7812 31.6328C72.6094 31.0547 72.5703 30.5391 72.6641 30.0859C72.7422 29.6328 72.9062 29.2656 73.1562 28.9844C73.4062 28.6875 73.6641 28.5391 73.9297 28.5391C74.0859 28.5391 74.3281 28.6094 74.6562 28.75C75 28.875 75.3906 29.0469 75.8281 29.2656C76.2656 29.4688 76.7422 29.6875 77.2578 29.9219C77.7734 30.1562 78.2891 30.3828 78.8047 30.6016C79.3203 30.8047 79.8203 30.9766 80.3047 31.1172C80.8047 31.2422 81.2578 31.3047 81.6641 31.3047C81.9297 30.9922 82.1719 30.5781 82.3906 30.0625C82.6094 29.5469 82.7188 28.9844 82.7188 28.375C82.7188 27.625 82.6172 26.9297 82.4141 26.2891C82.2109 25.6484 81.9453 25.0547 81.6172 24.5078C81.2891 23.9609 80.9141 23.4531 80.4922 22.9844C80.0859 22.5 79.6719 22.0469 79.25 21.625C78.875 22.5469 78.5469 23.4609 78.2656 24.3672C77.9844 25.2578 77.6875 26.2734 77.375 27.4141ZM95.9844 30.4844C96.6406 30.4844 97.1953 30.7109 97.6484 31.1641C98.1016 31.6016 98.3281 32.1484 98.3281 32.8047C98.3281 33.1016 98.2656 33.3906 98.1406 33.6719C98.0156 33.9375 97.8438 34.1719 97.625 34.375C97.4219 34.5781 97.1797 34.7422 96.8984 34.8672C96.6172 34.9922 96.3125 35.0547 95.9844 35.0547C95.6719 35.0547 95.375 34.9922 95.0938 34.8672C94.8125 34.7422 94.5625 34.5781 94.3438 34.375C94.1406 34.1719 93.9766 33.9375 93.8516 33.6719C93.7266 33.3906 93.6641 33.1016 93.6641 32.8047C93.6641 32.4766 93.7266 32.1719 93.8516 31.8906C93.9766 31.6094 94.1406 31.3672 94.3438 31.1641C94.5625 30.9453 94.8125 30.7812 95.0938 30.6719C95.375 30.5469 95.6719 30.4844 95.9844 30.4844ZM97.8594 26.7578C97.8594 27.3828 97.7109 27.8359 97.4141 28.1172C97.1172 28.3984 96.7656 28.5391 96.3594 28.5391C96.1094 28.5391 95.8516 28.4844 95.5859 28.375C95.3203 28.2656 95.0781 28.1172 94.8594 27.9297C94.6562 27.7266 94.4844 27.4922 94.3438 27.2266C94.2188 26.9453 94.1562 26.6406 94.1562 26.3125V2.66406C94.1562 2.21094 94.0781 1.86719 93.9219 1.63281C93.7812 1.38281 93.7109 1.16406 93.7109 0.976562C93.7109 0.804688 93.8281 0.664063 94.0625 0.554688C94.2969 0.445312 94.6641 0.390625 95.1641 0.390625C95.4922 0.390625 95.8125 0.421875 96.125 0.484375C96.4531 0.546875 96.7422 0.65625 96.9922 0.8125C97.2578 0.953125 97.4688 1.14844 97.625 1.39844C97.7812 1.63281 97.8594 1.9375 97.8594 2.3125V26.7578Z" fill="white"/>
</g>
<defs>
<filter id="filter0_i_31_148" x="0.195312" y="0.109375" width="98.1328" height="41.1016" filterUnits="userSpaceOnUse" color-interpolation-filters="sRGB">
<feFlood flood-opacity="0" result="BackgroundImageFix"/>
<feBlend mode="normal" in="SourceGraphic" in2="BackgroundImageFix" result="shape"/>
<feColorMatrix in="SourceAlpha" type="matrix" values="0 0 0 0 0 0 0 0 0 0 0 0 0 0 0 0 0 0 127 0" result="hardAlpha"/>
<feOffset dy="4"/>
<feGaussianBlur stdDeviation="2"/>
<feComposite in2="hardAlpha" operator="arithmetic" k2="-1" k3="1"/>
<feColorMatrix type="matrix" values="0 0 0 0 0 0 0 0 0 0 0 0 0 0 0 0 0 0 0.25 0"/>
<feBlend mode="normal" in2="shape" result="effect1_innerShadow_31_148"/>
</filter>
</defs>
</svg>
