<svg width="448" height="512" viewBox="0 0 448 512" fill="none" xmlns="http://www.w3.org/2000/svg">
<g clip-path="url(#clip0_257_162)">
<path d="M144 144V192H304V144C304 99.8 268.2 64 224 64C179.8 64 144 99.8 144 144ZM80 192V144C80 64.5 144.5 0 224 0C303.5 0 368 64.5 368 144V192H384C419.3 192 448 220.7 448 256V448C448 483.3 419.3 512 384 512H64C28.7 512 0 483.3 0 448V256C0 220.7 28.7 192 64 192H80Z" fill="#2A323C"/>
<path d="M314.523 291.485C319.159 296.131 319.159 303.677 314.523 308.324L211.423 411.515C206.788 416.162 199.259 416.162 194.623 411.515L133.477 349.832C128.841 345.186 128.841 337.64 133.477 332.993C138.113 328.347 145.642 328.347 150.278 332.993L203.042 386.238L297.759 291.485C302.395 286.839 309.887 286.838 314.523 291.485Z" fill="white" stroke="white" stroke-width="29"/>
</g>
<defs>
<clipPath id="clip0_257_162">
<rect width="448" height="512" fill="white"/>
</clipPath>
</defs>
</svg>
