<svg width="46" height="46" viewBox="0 0 46 46" fill="none" xmlns="http://www.w3.org/2000/svg">
<g clip-path="url(#clip0_214_48)">
<path d="M19.3523 8.625H12.9375H9.68516H8.625V9.41563V12.9375V16.5672V24.5633L0.0179688 18.1934C0.161719 16.5672 0.997266 15.0578 2.32695 14.0785L4.3125 12.6051V8.625C4.3125 6.24414 6.24414 4.3125 8.625 4.3125H15.507L19.9902 0.997266C20.8617 0.350391 21.9129 0 23 0C24.0871 0 25.1383 0.350391 26.0098 0.988281L30.493 4.3125H37.375C39.7559 4.3125 41.6875 6.24414 41.6875 8.625V12.6051L43.673 14.0785C45.0027 15.0578 45.8383 16.5672 45.982 18.1934L37.375 24.5633V16.5672V12.9375V9.41563V8.625H36.3148H33.0625H26.6477H19.3523ZM0 40.25V21.7512L19.55 36.234C20.5473 36.9707 21.7602 37.375 23 37.375C24.2398 37.375 25.4527 36.9797 26.45 36.234L46 21.7512V40.25C46 43.4215 43.4215 46 40.25 46H5.75C2.57852 46 0 43.4215 0 40.25ZM15.8125 14.375H30.1875C30.9781 14.375 31.625 15.0219 31.625 15.8125C31.625 16.6031 30.9781 17.25 30.1875 17.25H15.8125C15.0219 17.25 14.375 16.6031 14.375 15.8125C14.375 15.0219 15.0219 14.375 15.8125 14.375ZM15.8125 20.125H30.1875C30.9781 20.125 31.625 20.7719 31.625 21.5625C31.625 22.3531 30.9781 23 30.1875 23H15.8125C15.0219 23 14.375 22.3531 14.375 21.5625C14.375 20.7719 15.0219 20.125 15.8125 20.125Z" fill="#2A323C"/>
<circle cx="41" cy="5" r="5" fill="#FF4D4D"/>
</g>
<defs>
<clipPath id="clip0_214_48">
<rect width="46" height="46" fill="white"/>
</clipPath>
</defs>
</svg>
