<svg width="448" height="448" viewBox="0 0 448 448" fill="none" xmlns="http://www.w3.org/2000/svg">
<path d="M64 0C28.7 0 0 28.7 0 64V384C0 419.3 28.7 448 64 448H384C419.3 448 448 419.3 448 384V64C448 28.7 419.3 0 384 0H64ZM200 312V248H136C122.7 248 112 237.3 112 224C112 210.7 122.7 200 136 200H200V136C200 122.7 210.7 112 224 112C237.3 112 248 122.7 248 136V200H312C325.3 200 336 210.7 336 224C336 237.3 325.3 248 312 248H248V312C248 325.3 237.3 336 224 336C210.7 336 200 325.3 200 312Z" fill="#969696"/>
</svg>
