<svg width="63" height="50" viewBox="0 0 63 50" fill="none" xmlns="http://www.w3.org/2000/svg">
<path d="M7.0875 8.59375C7.0875 7.14335 7.66828 5.75235 8.70207 4.72676C9.73587 3.70117 11.138 3.125 12.6 3.125C14.062 3.125 15.4641 3.70117 16.4979 4.72676C17.5317 5.75235 18.1125 7.14335 18.1125 8.59375C18.1125 10.0442 17.5317 11.4352 16.4979 12.4607C15.4641 13.4863 14.062 14.0625 12.6 14.0625C11.138 14.0625 9.73587 13.4863 8.70207 12.4607C7.66828 11.4352 7.0875 10.0442 7.0875 8.59375ZM6.3 23.9941C5.31563 25.0879 4.725 26.543 4.725 28.125C4.725 29.707 5.31563 31.1621 6.3 32.2559V23.9941ZM20.5144 19.1797C17.5908 21.748 15.75 25.5078 15.75 29.6875C15.75 33.0371 16.9313 36.1133 18.9 38.5254V40.625C18.9 42.3535 17.4923 43.75 15.75 43.75H9.45C7.70766 43.75 6.3 42.3535 6.3 40.625V38.0078C2.57906 36.25 0 32.4902 0 28.125C0 22.0801 4.93172 17.1875 11.025 17.1875H14.175C16.5375 17.1875 18.7228 17.9199 20.5144 19.1699V19.1797ZM44.1 40.625V38.5254C46.0688 36.1133 47.25 33.0371 47.25 29.6875C47.25 25.5078 45.4092 21.748 42.4856 19.1699C44.2772 17.9199 46.4625 17.1875 48.825 17.1875H51.975C58.0683 17.1875 63 22.0801 63 28.125C63 32.4902 60.4209 36.25 56.7 38.0078V40.625C56.7 42.3535 55.2923 43.75 53.55 43.75H47.25C45.5077 43.75 44.1 42.3535 44.1 40.625ZM44.8875 8.59375C44.8875 7.14335 45.4683 5.75235 46.5021 4.72676C47.5359 3.70117 48.938 3.125 50.4 3.125C51.862 3.125 53.2641 3.70117 54.2979 4.72676C55.3317 5.75235 55.9125 7.14335 55.9125 8.59375C55.9125 10.0442 55.3317 11.4352 54.2979 12.4607C53.2641 13.4863 51.862 14.0625 50.4 14.0625C48.938 14.0625 47.5359 13.4863 46.5021 12.4607C45.4683 11.4352 44.8875 10.0442 44.8875 8.59375ZM56.7 23.9941V32.2656C57.6844 31.1621 58.275 29.7168 58.275 28.1348C58.275 26.5527 57.6844 25.0977 56.7 24.0039V23.9941ZM31.5 3.125C33.1709 3.125 34.7733 3.78348 35.9548 4.95558C37.1363 6.12769 37.8 7.7174 37.8 9.375C37.8 11.0326 37.1363 12.6223 35.9548 13.7944C34.7733 14.9665 33.1709 15.625 31.5 15.625C29.8291 15.625 28.2267 14.9665 27.0452 13.7944C25.8638 12.6223 25.2 11.0326 25.2 9.375C25.2 7.7174 25.8638 6.12769 27.0452 4.95558C28.2267 3.78348 29.8291 3.125 31.5 3.125ZM23.625 29.6875C23.625 31.2695 24.2156 32.7148 25.2 33.8184V25.5566C24.2156 26.6602 23.625 28.1055 23.625 29.6875ZM37.8 25.5566V33.8281C38.7844 32.7246 39.375 31.2793 39.375 29.6973C39.375 28.1152 38.7844 26.6602 37.8 25.5664V25.5566ZM44.1 29.6875C44.1 34.0527 41.5209 37.8125 37.8 39.5703V43.75C37.8 45.4785 36.3923 46.875 34.65 46.875H28.35C26.6077 46.875 25.2 45.4785 25.2 43.75V39.5703C21.4791 37.8125 18.9 34.0527 18.9 29.6875C18.9 23.6426 23.8317 18.75 29.925 18.75H33.075C39.1683 18.75 44.1 23.6426 44.1 29.6875Z" fill="#2A323C"/>
<circle cx="58" cy="42" r="5" fill="#FF4D4D"/>
</svg>
