<svg width="640" height="512" viewBox="0 0 640 512" fill="none" xmlns="http://www.w3.org/2000/svg">
<g clip-path="url(#clip0_220_89)">
<path d="M96 128C96 94.0523 109.486 61.495 133.49 37.4903C157.495 13.4857 190.052 0 224 0C257.948 0 290.505 13.4857 314.51 37.4903C338.514 61.495 352 94.0523 352 128C352 161.948 338.514 194.505 314.51 218.51C290.505 242.514 257.948 256 224 256C190.052 256 157.495 242.514 133.49 218.51C109.486 194.505 96 161.948 96 128ZM0 482.3C0 383.8 79.8 304 178.3 304H269.7C368.2 304 448 383.8 448 482.3C448 498.7 434.7 512 418.3 512H29.7C13.3 512 0 498.7 0 482.3ZM504 312V248H440C426.7 248 416 237.3 416 224C416 210.7 426.7 200 440 200H504V136C504 122.7 514.7 112 528 112C541.3 112 552 122.7 552 136V200H616C629.3 200 640 210.7 640 224C640 237.3 629.3 248 616 248H552V312C552 325.3 541.3 336 528 336C514.7 336 504 325.3 504 312Z" fill="#2A323C"/>
</g>
<defs>
<clipPath id="clip0_220_89">
<rect width="640" height="512" fill="white"/>
</clipPath>
</defs>
</svg>
