<svg width="43" height="50" viewBox="0 0 43 50" fill="none" xmlns="http://www.w3.org/2000/svg">
<path d="M21.5 25C24.7584 25 27.8833 23.683 30.1873 21.3388C32.4913 18.9946 33.7857 15.8152 33.7857 12.5C33.7857 9.18479 32.4913 6.00537 30.1873 3.66117C27.8833 1.31696 24.7584 0 21.5 0C18.2416 0 15.1167 1.31696 12.8127 3.66117C10.5087 6.00537 9.21429 9.18479 9.21429 12.5C9.21429 15.8152 10.5087 18.9946 12.8127 21.3388C15.1167 23.683 18.2416 25 21.5 25ZM17.1136 29.6875C7.65938 29.6875 0 37.4805 0 47.0996C0 48.7012 1.27656 50 2.85067 50H40.1493C41.7234 50 43 48.7012 43 47.0996C43 37.4805 35.3406 29.6875 25.8864 29.6875H17.1136Z" fill="#2A323C"/>
</svg>
