<svg width="640" height="512" viewBox="0 0 640 512" fill="none" xmlns="http://www.w3.org/2000/svg">
<g clip-path="url(#clip0_209_39)">
<path d="M144 0C165.217 0 185.566 8.42855 200.569 23.4315C215.571 38.4344 224 58.7827 224 80C224 101.217 215.571 121.566 200.569 136.569C185.566 151.571 165.217 160 144 160C122.783 160 102.434 151.571 87.4315 136.569C72.4285 121.566 64 101.217 64 80C64 58.7827 72.4285 38.4344 87.4315 23.4315C102.434 8.42855 122.783 0 144 0ZM512 0C533.217 0 553.566 8.42855 568.569 23.4315C583.571 38.4344 592 58.7827 592 80C592 101.217 583.571 121.566 568.569 136.569C553.566 151.571 533.217 160 512 160C490.783 160 470.434 151.571 455.431 136.569C440.429 121.566 432 101.217 432 80C432 58.7827 440.429 38.4344 455.431 23.4315C470.434 8.42855 490.783 0 512 0ZM0 298.7C0 239.8 47.8 192 106.7 192H149.4C165.3 192 180.4 195.5 194 201.7C192.7 208.9 192.1 216.4 192.1 224C192.1 262.2 208.9 296.5 235.4 320C235.2 320 235 320 234.7 320H21.3C9.6 320 0 310.4 0 298.7ZM405.3 320C405.1 320 404.9 320 404.6 320C431.2 296.5 447.9 262.2 447.9 224C447.9 216.4 447.2 209 446 201.7C459.6 195.4 474.7 192 490.6 192H533.3C592.2 192 640 239.8 640 298.7C640 310.5 630.4 320 618.7 320H405.3ZM224 224C224 198.539 234.114 174.121 252.118 156.118C270.121 138.114 294.539 128 320 128C345.461 128 369.879 138.114 387.882 156.118C405.886 174.121 416 198.539 416 224C416 249.461 405.886 273.879 387.882 291.882C369.879 309.886 345.461 320 320 320C294.539 320 270.121 309.886 252.118 291.882C234.114 273.879 224 249.461 224 224ZM128 485.3C128 411.7 187.7 352 261.3 352H378.7C452.3 352 512 411.7 512 485.3C512 500 500.1 512 485.3 512H154.7C140 512 128 500.1 128 485.3Z" fill="#2A323C"/>
</g>
<defs>
<clipPath id="clip0_209_39">
<rect width="640" height="512" fill="white"/>
</clipPath>
</defs>
</svg>
