<svg width="47" height="58" viewBox="0 0 47 58" fill="none" xmlns="http://www.w3.org/2000/svg">
<g filter="url(#filter0_d_33_1075)">
<path d="M25.5 25C28.7584 25 31.8833 23.683 34.1873 21.3388C36.4913 18.9946 37.7857 15.8152 37.7857 12.5C37.7857 9.18479 36.4913 6.00537 34.1873 3.66117C31.8833 1.31696 28.7584 0 25.5 0C22.2416 0 19.1167 1.31696 16.8127 3.66117C14.5087 6.00537 13.2143 9.18479 13.2143 12.5C13.2143 15.8152 14.5087 18.9946 16.8127 21.3388C19.1167 23.683 22.2416 25 25.5 25ZM21.1136 29.6875C11.6594 29.6875 4 37.4805 4 47.0996C4 48.7012 5.27656 50 6.85067 50H44.1493C45.7234 50 47 48.7012 47 47.0996C47 37.4805 39.3406 29.6875 29.8864 29.6875H21.1136Z" fill="#2A323C"/>
</g>
<defs>
<filter id="filter0_d_33_1075" x="0" y="0" width="51" height="58" filterUnits="userSpaceOnUse" color-interpolation-filters="sRGB">
<feFlood flood-opacity="0" result="BackgroundImageFix"/>
<feColorMatrix in="SourceAlpha" type="matrix" values="0 0 0 0 0 0 0 0 0 0 0 0 0 0 0 0 0 0 127 0" result="hardAlpha"/>
<feOffset dy="4"/>
<feGaussianBlur stdDeviation="2"/>
<feComposite in2="hardAlpha" operator="out"/>
<feColorMatrix type="matrix" values="0 0 0 0 0 0 0 0 0 0 0 0 0 0 0 0 0 0 0.25 0"/>
<feBlend mode="normal" in2="BackgroundImageFix" result="effect1_dropShadow_33_1075"/>
<feBlend mode="normal" in="SourceGraphic" in2="effect1_dropShadow_33_1075" result="shape"/>
</filter>
</defs>
</svg>
