<svg width="553" height="448" viewBox="0 0 553 448" fill="none" xmlns="http://www.w3.org/2000/svg">
<path d="M105 96C105 78.3 119.3 64 137 64C154.7 64 169 78.3 169 96V103.8C169 131.5 166.6 159.1 161.9 186.3L77.5 211.6C36.9 223.8 9.1 261.2 9.1 303.6V375.5C9.1 415.5 41.6 448 81.6 448C107.6 448 131.6 434.1 144.5 411.5L158.4 387.2C185.2 340.2 204.9 289.5 216.8 236.7L311.2 208.4L298.7 245.9C295.4 255.7 297.1 266.4 303.1 274.7C309.1 283 318.8 288 329.1 288H457C474.7 288 489 273.7 489 256C489 238.3 474.7 224 457 224H373.4L391.4 170.1C395.2 158.8 392.3 146.3 384 137.7C375.7 129.1 363.3 125.9 351.8 129.3L229.4 166.1C231.8 145.4 233 124.7 233 103.8V96C233 43 190 0 137 0C84 0 41 43 41 96V128C41 145.7 55.3 160 73 160C90.7 160 105 145.7 105 128V96ZM95.8 273L144.8 258.3C134.4 292.1 120.3 324.7 102.7 355.5L88.8 379.8C87.3 382.4 84.5 384.1 81.4 384.1C76.7 384.1 72.9 380.3 72.9 375.6V303.6C72.9 289.5 82.2 277 95.7 272.9L95.8 273ZM-63 336C-76.3 336 -87 346.7 -87 360C-87 373.3 -76.3 384 -63 384H-22.7C-22.9 381.2 -23 378.4 -23 375.5V336H-63ZM529 384C542.3 384 553 373.3 553 360C553 346.7 542.3 336 529 336H218.9C212.2 352.3 204.7 368.3 196.6 384H529Z" fill="#2A323C"/>
</svg>
