<svg width="76" height="76" viewBox="0 0 76 76" fill="none" xmlns="http://www.w3.org/2000/svg">
<g clip-path="url(#clip0_228_108)">
<path d="M38 75.5C58.7107 75.5 75.5 58.7107 75.5 38C75.5 17.2893 58.7107 0.5 38 0.5C17.2893 0.5 0.5 17.2893 0.5 38C0.5 58.7107 17.2893 75.5 38 75.5Z" fill="#B0D9B1"/>
<path d="M21.6098 41.8028H26.4271V54.727H48.9061V41.8028H53.7235V38.5719H21.6098V41.8028ZM45.6951 51.4961H29.6382V41.8028H45.6951V51.4961Z" fill="white"/>
<path d="M28.015 37.1494H47.3006C49.0456 37.1264 50.7196 36.4545 51.9964 35.2648C52.5814 34.66 53.0366 33.942 53.3342 33.1549C53.6318 32.3679 53.7655 31.5283 53.727 30.6877H50.5124C50.573 31.2399 50.4679 31.7976 50.2106 32.2899C49.9533 32.7822 49.5553 33.1868 49.0672 33.4522C48.5176 33.7299 47.9157 33.8888 47.3006 33.9186C42.2691 33.9186 39.2722 24.315 39.2722 22.6119H36.0611C36.0611 24.3892 33.1708 33.9186 28.0327 33.9186C27.4173 33.8906 26.815 33.7316 26.266 33.4522C25.778 33.1868 25.38 32.7822 25.1226 32.2899C24.8653 31.7976 24.7602 31.2399 24.8209 30.6877H21.6098C21.5754 31.5278 21.711 32.3662 22.0083 33.1527C22.3057 33.9392 22.7588 34.6576 23.3404 35.2648C24.6123 36.4488 26.2775 37.1202 28.015 37.1494Z" fill="white"/>
<path d="M37.6666 24.2196C38.5557 24.2196 39.2764 23.4988 39.2764 22.6098C39.2764 21.7207 38.5557 21 37.6666 21C36.7776 21 36.0568 21.7207 36.0568 22.6098C36.0568 23.4988 36.7776 24.2196 37.6666 24.2196Z" fill="white"/>
<path d="M23.18 31.9327C23.9606 31.9327 24.5933 31.3 24.5933 30.5194C24.5933 29.7388 23.9606 29.1061 23.18 29.1061C22.3994 29.1061 21.7667 29.7388 21.7667 30.5194C21.7667 31.3 22.3994 31.9327 23.18 31.9327Z" fill="white"/>
<path d="M52.072 31.9327C52.8526 31.9327 53.4853 31.3 53.4853 30.5194C53.4853 29.7388 52.8526 29.1061 52.072 29.1061C51.2914 29.1061 50.6587 29.7388 50.6587 30.5194C50.6587 31.3 51.2914 31.9327 52.072 31.9327Z" fill="white"/>
<path d="M21.6098 41.8304C22.4988 41.8304 23.2196 41.1097 23.2196 40.2206C23.2196 39.3316 22.4988 38.6108 21.6098 38.6108C20.7207 38.6108 20 39.3316 20 40.2206C20 41.1097 20.7207 41.8304 21.6098 41.8304Z" fill="white"/>
<path d="M53.7235 41.8304C54.6125 41.8304 55.3332 41.1097 55.3332 40.2206C55.3332 39.3316 54.6125 38.6108 53.7235 38.6108C52.8344 38.6108 52.1137 39.3316 52.1137 40.2206C52.1137 41.1097 52.8344 41.8304 53.7235 41.8304Z" fill="white"/>
</g>
<defs>
<clipPath id="clip0_228_108">
<rect width="75" height="75" fill="white" transform="translate(0.5 0.5)"/>
</clipPath>
</defs>
</svg>
