<svg width="76" height="76" viewBox="0 0 76 76" fill="none" xmlns="http://www.w3.org/2000/svg">
<g clip-path="url(#clip0_228_97)">
<path d="M38 75.5C58.7107 75.5 75.5 58.7107 75.5 38C75.5 17.2893 58.7107 0.5 38 0.5C17.2893 0.5 0.5 17.2893 0.5 38C0.5 58.7107 17.2893 75.5 38 75.5Z" fill="#B0D9B1"/>
<path d="M53.7783 55.9224C54.0682 55.9276 54.3562 55.875 54.6255 55.7676C54.8948 55.6603 55.14 55.5004 55.3469 55.2972C55.5537 55.0941 55.718 54.8517 55.8301 54.5844C55.9422 54.3171 56 54.0301 56 53.7401C56 53.4502 55.9422 53.1632 55.8301 52.8959C55.718 52.6285 55.5537 52.3862 55.3469 52.1831C55.14 51.9799 54.8948 51.82 54.6255 51.7126C54.3562 51.6053 54.0682 51.5527 53.7783 51.5579H52.862L41.0144 30.8254L44.7615 24.2783C44.9048 24.0294 44.9977 23.7547 45.0349 23.4699C45.072 23.1851 45.0527 22.8958 44.9781 22.6185C44.9034 22.3412 44.7749 22.0813 44.5998 21.8536C44.4247 21.626 44.2065 21.4351 43.9576 21.2917C43.7087 21.1484 43.434 21.0555 43.1493 21.0184C42.8645 20.9812 42.5752 21.0005 42.2978 21.0752C42.0205 21.1498 41.7606 21.2784 41.533 21.4535C41.3053 21.6285 41.1144 21.8468 40.9711 22.0956L38.5 26.4281L36.0303 22.0977C35.7409 21.5951 35.2636 21.228 34.7036 21.0773C34.1435 20.9265 33.5464 21.0044 33.0438 21.2938C32.5412 21.5833 32.1741 22.0605 32.0233 22.6206C31.8726 23.1807 31.9505 23.7777 32.2399 24.2804L35.9856 30.8254L24.1387 51.5579H23.2217C22.9318 51.5527 22.6438 51.6053 22.3745 51.7126C22.1052 51.82 21.86 51.9799 21.6531 52.1831C21.4463 52.3862 21.282 52.6285 21.1699 52.8959C21.0578 53.1632 21 53.4502 21 53.7401C21 54.0301 21.0578 54.3171 21.1699 54.5844C21.282 54.8517 21.4463 55.0941 21.6531 55.2972C21.86 55.5004 22.1052 55.6603 22.3745 55.7676C22.6438 55.875 22.9318 55.9276 23.2217 55.9224H53.7783ZM34.1927 51.5579L37.4922 45.7818C37.5937 45.6043 37.7404 45.4568 37.9173 45.3542C38.0942 45.2516 38.2951 45.1975 38.4996 45.1975C38.7042 45.1975 38.9051 45.2516 39.082 45.3542C39.2589 45.4568 39.4056 45.6043 39.5071 45.7818L42.8066 51.5579H34.1927Z" fill="white" stroke="#B0D9B1"/>
</g>
<defs>
<clipPath id="clip0_228_97">
<rect width="75" height="75" fill="white" transform="translate(0.5 0.5)"/>
</clipPath>
</defs>
</svg>
