<svg width="76" height="76" viewBox="0 0 76 76" fill="none" xmlns="http://www.w3.org/2000/svg">
<g clip-path="url(#clip0_228_102)">
<path d="M38 75.5C58.7107 75.5 75.5 58.7107 75.5 38C75.5 17.2893 58.7107 0.5 38 0.5C17.2893 0.5 0.5 17.2893 0.5 38C0.5 58.7107 17.2893 75.5 38 75.5Z" fill="#B0D9B1"/>
<path d="M40.5 31C41.8807 31 43 29.8807 43 28.5C43 27.1193 41.8807 26 40.5 26C39.1193 26 38 27.1193 38 28.5C38 29.8807 39.1193 31 40.5 31Z" fill="white"/>
<path d="M22.4584 44.7908H31.2901L25.6448 52.6941C25.4204 53.0097 25.3306 53.4015 25.3951 53.7833C25.4596 54.1651 25.6732 54.5056 25.9888 54.73C26.1451 54.8411 26.3217 54.9203 26.5086 54.9631C26.6955 55.0059 26.889 55.0115 27.078 54.9796C27.4598 54.9151 27.8004 54.7015 28.0247 54.3859L34.8566 44.7908H37.044V53.5404C37.044 53.9272 37.1977 54.2981 37.4712 54.5716C37.7447 54.8451 38.1157 54.9988 38.5025 54.9988C38.8892 54.9988 39.2602 54.8451 39.5337 54.5716C39.8072 54.2981 39.9609 53.9272 39.9609 53.5404V44.7908H42.1483L48.9998 54.3859C49.2241 54.7015 49.5647 54.9151 49.9465 54.9796C50.3283 55.0441 50.7201 54.9543 51.0357 54.73C51.3513 54.5056 51.5649 54.1651 51.6294 53.7833C51.6939 53.4015 51.6041 53.0097 51.3797 52.6941L45.7099 44.7908H54.5416C54.9284 44.7908 55.2993 44.6371 55.5728 44.3636C55.8463 44.0901 56 43.7192 56 43.3324C56 42.9456 55.8463 42.5747 55.5728 42.3012C55.2993 42.0277 54.9284 41.874 54.5416 41.874H53.0828V24.3748C53.0828 23.2145 52.6219 22.1018 51.8014 21.2813C50.981 20.4609 49.8682 20 48.7079 20H28.2921C27.1318 20 26.019 20.4609 25.1986 21.2813C24.3781 22.1018 23.9172 23.2145 23.9172 24.3748V41.874H22.4584C22.0716 41.874 21.7007 42.0277 21.4272 42.3012C21.1537 42.5747 21 42.9456 21 43.3324C21 43.7192 21.1537 44.0901 21.4272 44.3636C21.7007 44.6371 22.0716 44.7908 22.4584 44.7908ZM28.2914 22.9168H48.7079C49.0946 22.9168 49.4655 23.0704 49.7389 23.3438C50.0123 23.6172 50.166 23.9881 50.166 24.3748V35.9243L45.2444 31.987C44.9641 31.7636 44.6115 31.6513 44.2537 31.6715C43.8959 31.6916 43.5581 31.8428 43.3047 32.0961L39.9581 35.4357L33.6946 29.1794C33.4224 28.9144 33.0574 28.7661 32.6775 28.7661C32.2976 28.7661 31.9327 28.9144 31.6604 29.1794L26.8305 33.7362V24.3748C26.8305 24.183 26.8684 23.9932 26.9419 23.816C27.0154 23.6389 27.1231 23.478 27.2588 23.3426C27.3946 23.2071 27.5557 23.0998 27.7331 23.0267C27.9104 22.9537 28.0996 22.9163 28.2914 22.9168Z" fill="white"/>
</g>
<defs>
<clipPath id="clip0_228_102">
<rect width="75" height="75" fill="white" transform="translate(0.5 0.5)"/>
</clipPath>
</defs>
</svg>
