<svg width="76" height="76" viewBox="0 0 76 76" fill="none" xmlns="http://www.w3.org/2000/svg">
<g clip-path="url(#clip0_228_127)">
<path d="M38 75.5C58.7107 75.5 75.5 58.7107 75.5 38C75.5 17.2893 58.7107 0.5 38 0.5C17.2893 0.5 0.5 17.2893 0.5 38C0.5 58.7107 17.2893 75.5 38 75.5Z" fill="#B0D9B1"/>
<path d="M52.9721 50.9612L50.9816 34.2869C50.8221 33.1953 50.2686 32.1998 49.4254 31.4883C48.5822 30.7768 47.5078 30.3986 46.4049 30.425H45.0268V27.5248C45.0268 25.7943 44.3394 24.1347 43.1158 22.9111C41.8921 21.6874 40.2325 21 38.502 21C36.7715 21 35.1119 21.6874 33.8883 22.9111C32.6646 24.1347 31.9772 25.7943 31.9772 27.5248V30.425H30.5999C29.4965 30.3979 28.4214 30.7758 27.5776 31.4874C26.7339 32.1989 26.1799 33.1948 26.0203 34.2869L24.0298 50.9612C23.9587 51.5513 24.0151 52.1497 24.1952 52.7161C24.3753 53.2824 24.6749 53.8035 25.0738 54.2441C25.5198 54.7386 26.0656 55.1328 26.6752 55.4008C27.2847 55.6688 27.9442 55.8045 28.6101 55.799H48.3954C49.0603 55.8037 49.7187 55.6676 50.3272 55.3997C50.9358 55.1317 51.4807 54.7379 51.9261 54.2441C52.3251 53.8036 52.6248 53.2826 52.8049 52.7162C52.985 52.1498 53.0413 51.5513 52.97 50.9612H52.9721ZM34.8767 27.5248C34.8767 26.5634 35.2586 25.6414 35.9384 24.9615C36.6182 24.2817 37.5403 23.8998 38.5017 23.8998C39.4631 23.8998 40.3851 24.2817 41.0649 24.9615C41.7448 25.6414 42.1267 26.5634 42.1267 27.5248V30.425H34.8767V27.5248ZM33.4269 40.209C32.887 40.2096 32.3609 40.0376 31.9255 39.7183C31.4901 39.399 31.168 38.949 31.0062 38.4338C30.8444 37.9187 30.8513 37.3653 31.026 36.8543C31.2006 36.3434 31.5339 35.9016 31.9772 35.5933V37.6715C31.9772 38.0561 32.13 38.4249 32.4019 38.6968C32.6739 38.9688 33.0427 39.1216 33.4273 39.1216C33.8119 39.1216 34.1807 38.9688 34.4526 38.6968C34.7246 38.4249 34.8774 38.0561 34.8774 37.6715V35.5961C35.3195 35.9048 35.6516 36.3465 35.8255 36.857C35.9994 37.3675 36.0059 37.9201 35.8442 38.4346C35.6824 38.949 35.3608 39.3985 34.9261 39.7176C34.4914 40.0367 33.9662 40.2089 33.4269 40.209ZM43.5764 40.209C43.0364 40.2096 42.5104 40.0376 42.075 39.7183C41.6395 39.399 41.3174 38.949 41.1556 38.4338C40.9938 37.9187 41.0008 37.3653 41.1754 36.8543C41.3501 36.3434 41.6834 35.9016 42.1267 35.5933V37.6715C42.1267 38.0561 42.2795 38.4249 42.5514 38.6968C42.8233 38.9688 43.1922 39.1216 43.5768 39.1216C43.9613 39.1216 44.3302 38.9688 44.6021 38.6968C44.8741 38.4249 45.0268 38.0561 45.0268 37.6715V35.5961C45.469 35.9048 45.8011 36.3465 45.975 36.857C46.1489 37.3675 46.1554 37.9201 45.9936 38.4346C45.8319 38.949 45.5103 39.3985 45.0756 39.7176C44.6408 40.0367 44.1157 40.2089 43.5764 40.209Z" fill="white"/>
</g>
<defs>
<clipPath id="clip0_228_127">
<rect width="75" height="75" fill="white" transform="translate(0.5 0.5)"/>
</clipPath>
</defs>
</svg>
