<svg width="76" height="76" viewBox="0 0 76 76" fill="none" xmlns="http://www.w3.org/2000/svg">
<g clip-path="url(#clip0_228_137)">
<path d="M38 75.5C58.7107 75.5 75.5 58.7107 75.5 38C75.5 17.2893 58.7107 0.5 38 0.5C17.2893 0.5 0.5 17.2893 0.5 38C0.5 58.7107 17.2893 75.5 38 75.5Z" fill="#B0D9B1"/>
<path d="M56.1819 40.5769V49.7534C56.1873 49.8238 56.1783 49.8947 56.1554 49.9615C56.1325 50.0283 56.0961 50.0898 56.0486 50.142C56.001 50.1943 55.9433 50.2363 55.8789 50.2654C55.8145 50.2945 55.7448 50.3102 55.6742 50.3114H53.3668C53.2167 50.311 53.0725 50.2527 52.9642 50.1488C52.8559 50.0449 52.7918 49.9033 52.7851 49.7534V43.4845H24.1701V49.7563C24.1755 49.8268 24.1665 49.8976 24.1436 49.9644C24.1207 50.0313 24.0843 50.0927 24.0367 50.145C23.9892 50.1973 23.9315 50.2392 23.8671 50.2684C23.8027 50.2975 23.733 50.3131 23.6624 50.3143H21.3549C21.2827 50.3134 21.2113 50.2982 21.1449 50.2696C21.0785 50.241 21.0184 50.1996 20.968 50.1478C20.9177 50.096 20.878 50.0347 20.8513 49.9676C20.8246 49.9004 20.8114 49.8286 20.8125 49.7563V26.323C20.8124 26.2529 20.8266 26.1835 20.8541 26.119C20.8817 26.0545 20.922 25.9963 20.9728 25.9478C21.0235 25.8994 21.0835 25.8618 21.1492 25.8372C21.2149 25.8127 21.2849 25.8017 21.3549 25.805H23.6624C23.7308 25.802 23.799 25.8134 23.8627 25.8384C23.9263 25.8635 23.984 25.9018 24.0319 25.9507C24.0798 25.9995 24.1169 26.058 24.1407 26.1221C24.1645 26.1863 24.1745 26.2547 24.1701 26.323V40.0493H55.6742C55.7431 40.0474 55.8116 40.0599 55.8754 40.086C55.9392 40.1121 55.9968 40.1512 56.0446 40.2009C56.0924 40.2506 56.1293 40.3097 56.1529 40.3744C56.1766 40.4392 56.1864 40.5081 56.1819 40.5769Z" fill="white"/>
<path d="M55.4278 40.5762V48.6426C55.4278 49.0126 55.4196 49.3826 55.4278 49.7482V49.7637C55.4278 49.8104 55.4085 49.9117 55.4359 49.7127C55.4277 49.7556 55.3774 49.8533 55.4596 49.6661C55.4085 49.7793 55.4714 49.6468 55.4951 49.6268C55.5846 49.5647 55.6083 49.5484 55.5573 49.5802C55.5062 49.612 55.5299 49.5995 55.6313 49.5528C55.5025 49.5995 55.76 49.561 55.6549 49.5491C55.6083 49.5454 55.5573 49.5491 55.5069 49.5491H53.7308C53.6203 49.5394 53.5091 49.5394 53.3986 49.5491C53.3949 49.5491 53.383 49.5454 53.3793 49.5491L53.4807 49.5647C53.3519 49.5292 53.4963 49.5802 53.5162 49.5921C53.3993 49.5299 53.5244 49.6076 53.5399 49.6231C53.4459 49.5336 53.5436 49.6424 53.5555 49.6624C53.4615 49.5144 53.5865 49.7874 53.5592 49.6816C53.5355 49.5995 53.5784 49.7401 53.5673 49.76C53.5791 49.7408 53.5673 49.6816 53.5673 49.6624V43.4697C53.5641 43.2635 53.4807 43.0666 53.3348 42.9207C53.189 42.7749 52.9921 42.6915 52.7858 42.6882H25.3304C24.9604 42.6882 24.5845 42.6801 24.213 42.6882H24.1663C23.9601 42.6915 23.7632 42.7749 23.6173 42.9207C23.4715 43.0666 23.3881 43.2635 23.3849 43.4697V48.8801C23.3849 49.1614 23.3886 49.4426 23.3849 49.7238C23.3829 49.7459 23.3829 49.7682 23.3849 49.7904C23.393 49.8962 23.4315 49.6032 23.3811 49.763C23.4552 49.5484 23.3145 49.8022 23.4552 49.6305L23.4196 49.6661C23.4649 49.6121 23.5269 49.5749 23.5958 49.5602C23.4744 49.6032 23.6113 49.5366 23.6505 49.5565C23.6066 49.5507 23.562 49.5507 23.5181 49.5565H21.5866C21.52 49.5565 21.4497 49.5528 21.3838 49.5565C21.3708 49.5546 21.3576 49.5546 21.3446 49.5565C21.3364 49.5647 20.3951 49.3219 21.4423 49.5721C21.3601 49.5484 21.3756 49.5565 21.4815 49.5995C21.4075 49.5565 21.423 49.5684 21.517 49.6305C21.3882 49.5247 21.5954 49.7711 21.517 49.6268C21.591 49.7674 21.5599 49.7245 21.5444 49.6661C21.8885 51.0174 21.5562 49.7793 21.5636 49.7674C21.571 49.7556 21.5636 49.7519 21.5636 49.7438C21.5812 49.4367 21.5812 49.1288 21.5636 48.8217V26.5465C21.5753 26.4703 21.5753 26.3927 21.5636 26.3164V26.3127C21.5947 26.3556 21.5126 26.4888 21.5599 26.3675C21.5481 26.3985 21.5325 26.4296 21.5207 26.4614C21.5636 26.3874 21.5518 26.403 21.4852 26.5007L21.403 26.5591C21.4615 26.528 21.4578 26.5236 21.3949 26.551C21.3793 26.5591 21.3638 26.5628 21.3483 26.5702C21.4304 26.5465 21.4104 26.5465 21.2935 26.5665C21.2972 26.5665 21.3601 26.5628 21.3756 26.5628C21.5592 26.5591 21.739 26.5628 21.9225 26.5628H23.6527C23.6711 26.5621 23.6894 26.5633 23.7075 26.5665C23.6342 26.5722 23.5612 26.5529 23.5003 26.5118C23.6135 26.5739 23.4692 26.4807 23.4574 26.4688C23.5121 26.5273 23.5003 26.5118 23.4219 26.4178C23.3789 26.3008 23.3708 26.2853 23.3982 26.363C23.3671 26.1521 23.39 26.3119 23.39 26.3711C23.3937 26.8988 23.39 27.4257 23.39 27.9533V40.0434C23.3933 40.2496 23.4767 40.4465 23.6225 40.5923C23.7684 40.7382 23.9653 40.8216 24.1715 40.8248H54.5641C54.9341 40.8248 55.3042 40.8285 55.6697 40.8248H55.689C55.7201 40.8248 55.7948 40.8441 55.689 40.8211C55.6653 40.8174 55.4862 40.7353 55.5602 40.7819C55.6342 40.8285 55.4936 40.7234 55.4981 40.7271C55.592 40.8093 55.4744 40.6916 55.4625 40.6761C55.4981 40.7227 55.4862 40.7893 55.4389 40.6213C55.4307 40.6213 55.4196 40.4415 55.427 40.5821C55.4333 40.7851 55.5183 40.9777 55.6641 41.1191C55.8099 41.2605 56.005 41.3395 56.2081 41.3395C56.4112 41.3395 56.6063 41.2605 56.7521 41.1191C56.8979 40.9777 56.983 40.7851 56.9892 40.5821C56.9863 40.4038 56.9475 40.2279 56.8753 40.0649C56.8031 39.9019 56.6989 39.755 56.5689 39.633C56.4389 39.511 56.2857 39.4163 56.1184 39.3546C55.9511 39.2929 55.7731 39.2654 55.595 39.2737H25.5006C25.0751 39.2737 24.6488 39.2619 24.2233 39.2737H24.1686L24.95 40.0552V26.7153C24.95 26.5828 24.9537 26.4533 24.95 26.3208C24.9525 26.0786 24.8877 25.8405 24.7629 25.6329C24.6382 25.4253 24.4583 25.2564 24.2433 25.1449C23.9795 25.0328 23.693 24.9846 23.4071 25.0043H21.7582C21.6213 25.0043 21.4807 25.0006 21.3438 25.0043C20.9943 25.0057 20.659 25.143 20.4089 25.3872C20.1587 25.6314 20.0134 25.9633 20.0036 26.3127C19.9955 26.5547 20.0036 26.7974 20.0036 27.0394V49.7667C20.0105 50.121 20.1536 50.4591 20.4032 50.7107C20.6527 50.9623 20.9896 51.1082 21.3438 51.118C21.4807 51.1217 21.6213 51.118 21.7582 51.118H23.4071C23.6938 51.1397 23.9814 51.0888 24.2433 50.97C24.4592 50.8488 24.6387 50.6719 24.7631 50.4578C24.8875 50.2438 24.9523 50.0003 24.9508 49.7526C24.9745 48.9675 24.9508 48.1786 24.9508 47.3934V43.4712L24.1693 44.2527H51.6247C51.9947 44.2527 52.3707 44.2645 52.7422 44.2527H52.7888L52.0073 43.4712V49.5306C51.9826 49.843 52.0475 50.156 52.1945 50.4327C52.3198 50.6355 52.4937 50.8039 52.7004 50.9225C52.9072 51.0411 53.1403 51.1063 53.3786 51.1121C53.4763 51.1158 53.574 51.1121 53.6746 51.1121H54.9674C55.2934 51.1291 55.6201 51.1187 55.9443 51.081C56.2503 51.0097 56.522 50.8343 56.713 50.5849C56.904 50.3354 57.0024 50.0274 56.9915 49.7134V44.5258C56.9915 43.2329 57.0107 41.9356 56.9915 40.6391V40.5725C56.9895 40.3658 56.9066 40.1682 56.7604 40.022C56.6143 39.8759 56.4166 39.7929 56.21 39.791C56.0037 39.7965 55.8075 39.881 55.6619 40.0272C55.5163 40.1733 55.4324 40.3699 55.4278 40.5762Z" fill="white"/>
<path d="M30.0807 37.5716C31.9011 37.5716 33.3768 36.0959 33.3768 34.2755C33.3768 32.4551 31.9011 30.9794 30.0807 30.9794C28.2603 30.9794 26.7846 32.4551 26.7846 34.2755C26.7846 36.0959 28.2603 37.5716 30.0807 37.5716Z" fill="white"/>
<path d="M32.5843 34.2748C32.5843 34.3577 32.5806 34.4413 32.5761 34.5242C32.5786 34.5694 32.5747 34.6148 32.5643 34.6589C32.5643 34.6589 32.5998 34.4531 32.568 34.6071C32.5396 34.7652 32.5013 34.9214 32.4533 35.0748C32.4415 35.1066 32.4296 35.1421 32.4178 35.1739C32.4059 35.2058 32.3941 35.3367 32.4022 35.2257C32.4059 35.131 32.4104 35.2058 32.3904 35.2494C32.3704 35.2931 32.3549 35.3286 32.3349 35.3686C32.2642 35.5078 32.1833 35.6416 32.0929 35.7689C32.0758 35.7984 32.056 35.8261 32.0337 35.8518C32.0892 35.84 32.1366 35.729 32.0455 35.8318C31.9937 35.891 31.9427 35.9465 31.8909 36.0065C31.8435 36.0539 31.7917 36.1057 31.7429 36.1493C31.7183 36.1739 31.6918 36.1964 31.6637 36.2167C31.643 36.2328 31.6232 36.2501 31.6045 36.2684C31.5571 36.304 31.5771 36.2921 31.6637 36.2248C31.6555 36.2566 31.5208 36.324 31.4935 36.3439C31.4298 36.3876 31.3625 36.4268 31.2951 36.4668C31.2271 36.5065 31.157 36.5423 31.085 36.5741C31.0549 36.5917 31.0232 36.6064 30.9902 36.6178C31.0894 36.5741 31.1131 36.566 31.0576 36.5859C31.0339 36.5941 31.0102 36.6059 30.9836 36.6133C30.8413 36.6644 30.6957 36.7055 30.5477 36.7362L30.4167 36.7598C30.2976 36.7835 30.4567 36.768 30.4685 36.7561C30.4448 36.788 30.2428 36.7761 30.1954 36.7761C30.0371 36.7798 29.8824 36.768 29.7277 36.7606C29.6086 36.7524 29.9298 36.8005 29.7514 36.7643C29.7159 36.7561 29.6774 36.7524 29.6441 36.7443C29.5568 36.7288 29.4695 36.7043 29.3866 36.6807C29.3192 36.6607 29.2519 36.6407 29.1846 36.617C29.1883 36.617 29.0854 36.5852 29.0854 36.5815C29.0891 36.6089 29.2437 36.6555 29.1054 36.5896C28.9558 36.5192 28.8114 36.4383 28.6732 36.3476C28.6458 36.3277 28.5111 36.2603 28.503 36.2285C28.5067 36.2522 28.6258 36.3313 28.5429 36.2559C28.5111 36.2285 28.4756 36.2004 28.4438 36.173C28.3243 36.0612 28.2107 35.9434 28.1034 35.82C28.0294 35.7371 28.107 35.8518 28.1307 35.8599C28.1081 35.8345 28.0882 35.8067 28.0715 35.7771C28.0316 35.7216 27.9923 35.6624 27.9568 35.6024C27.9213 35.5425 27.8776 35.4677 27.8421 35.4004C27.8221 35.3604 27.8022 35.3212 27.7829 35.2857C27.7637 35.2502 27.7555 35.131 27.7592 35.2383C27.7629 35.3456 27.7555 35.2228 27.7437 35.1865C27.7319 35.1503 27.72 35.1192 27.7082 35.0874L27.649 34.8853C27.629 34.8061 27.6134 34.7269 27.5972 34.6515C27.5698 34.5035 27.5616 34.6478 27.5972 34.6752C27.5816 34.6633 27.5853 34.556 27.5853 34.5405C27.5742 34.3848 27.5729 34.2286 27.5816 34.0728C27.5865 34.036 27.5892 33.9989 27.5898 33.9618C27.6016 33.7797 27.5624 34.1001 27.5861 33.9854C27.6016 33.8981 27.6179 33.8108 27.6379 33.7242C27.6497 33.6687 27.7252 33.3083 27.7726 33.2965C27.7607 33.3002 27.6985 33.4511 27.7526 33.3401C27.7725 33.3002 27.7881 33.2609 27.8081 33.221C27.8455 33.1432 27.8878 33.0678 27.9346 32.9953C27.9746 32.9279 28.0175 32.8643 28.0612 32.8014C28.078 32.7718 28.0979 32.744 28.1204 32.7185C28.1204 32.7185 27.9938 32.8665 28.093 32.7585C28.1922 32.6504 28.2987 32.5283 28.4142 32.4217C28.446 32.3943 28.4778 32.3662 28.5133 32.3388C28.6162 32.2478 28.5052 32.2952 28.4934 32.3507C28.5015 32.3189 28.6317 32.2515 28.6636 32.2315C28.7936 32.1451 28.9299 32.0685 29.0713 32.0021C29.115 31.9822 29.226 31.9747 29.1187 31.9784C29.0114 31.9821 29.1031 31.9866 29.1461 31.9703C29.2201 31.9466 29.2941 31.9185 29.3718 31.8963C29.4495 31.8741 29.5102 31.8608 29.5775 31.8445C29.6129 31.8359 29.6487 31.8293 29.6848 31.8245C29.7203 31.8174 29.7561 31.8122 29.7921 31.809C29.7576 31.8122 29.7232 31.8174 29.6892 31.8245C29.7697 31.8054 29.8525 31.7987 29.9349 31.8045C30.0183 31.8006 30.1015 31.8006 30.1843 31.8045C30.2583 31.8082 30.3323 31.8127 30.4019 31.8201C30.5603 31.8319 30.3501 31.812 30.3545 31.812C30.3701 31.7964 30.4855 31.8356 30.5129 31.8393C30.6865 31.8771 30.8574 31.9265 31.0243 31.9873C31.1671 32.0347 30.9843 31.9674 30.9806 31.9674C31.0124 31.9637 31.0916 32.0192 31.1234 32.0347C31.2026 32.0747 31.2781 32.1139 31.3529 32.1575C31.4277 32.2014 31.5004 32.2491 31.5704 32.3004C31.5904 32.3122 31.7014 32.4232 31.6141 32.3322C31.5268 32.2412 31.6341 32.3477 31.654 32.3677C31.7854 32.4792 31.9074 32.6012 32.0189 32.7326C32.0307 32.7481 32.1499 32.8635 32.0544 32.7725C31.9589 32.6815 32.0662 32.7925 32.0862 32.8162C32.1417 32.8954 32.1935 32.9745 32.2409 33.0582C32.2883 33.1418 32.3238 33.2062 32.3637 33.2883C32.3793 33.3202 32.3911 33.352 32.4074 33.383C32.4311 33.4385 32.423 33.4149 32.38 33.3157C32.3882 33.3394 32.4 33.3631 32.4074 33.3897C32.4647 33.5573 32.5124 33.7281 32.5502 33.9011C32.5584 33.9366 32.5621 33.9751 32.5702 34.0084C32.5784 34.0676 32.5784 34.0439 32.5621 33.9344C32.5667 33.9618 32.5695 33.9895 32.5702 34.0173C32.5784 34.0765 32.5821 34.1793 32.5858 34.2785C32.5921 34.4844 32.6783 34.6798 32.8262 34.8232C32.974 34.9666 33.172 35.0469 33.378 35.0469C33.584 35.0469 33.7819 34.9666 33.9298 34.8232C34.0777 34.6798 34.1639 34.4844 34.1702 34.2785C34.1614 33.4369 33.8967 32.618 33.4111 31.9306C32.9256 31.2432 32.2422 30.7199 31.452 30.4303C30.6703 30.1523 29.8223 30.119 29.0212 30.3349C28.22 30.5508 27.5036 31.0056 26.9674 31.6388C26.5422 32.1405 26.2445 32.7374 26.0994 33.3788C25.9543 34.0202 25.9662 34.6872 26.134 35.323C26.3018 35.9589 26.6207 36.5448 27.0634 37.031C27.5062 37.5173 28.0597 37.8895 28.6771 38.116C29.2945 38.3425 29.9574 38.4166 30.6096 38.3321C31.2618 38.2476 31.8839 38.0069 32.4231 37.6305C32.9623 37.2541 33.4027 36.753 33.7069 36.17C34.0111 35.5869 34.17 34.9391 34.1702 34.2814C34.1644 34.0755 34.0786 33.8799 33.9311 33.7361C33.7835 33.5923 33.5858 33.5116 33.3798 33.5112C33.1737 33.5107 32.9756 33.5905 32.8274 33.7336C32.6792 33.8767 32.5925 34.0718 32.5858 34.2777L32.5843 34.2748Z" fill="white"/>
<path d="M56.1811 38.1599V40.6716C56.1857 40.6016 56.1756 40.5314 56.1514 40.4656C56.1272 40.3997 56.0895 40.3397 56.0407 40.2893C55.9919 40.2389 55.9331 40.1992 55.8681 40.173C55.803 40.1467 55.7332 40.1343 55.6631 40.1366H35.6591V30.9453H48.9946C50.9025 30.9549 52.7291 31.719 54.0756 33.0707C55.422 34.4224 56.179 36.252 56.1811 38.1599Z" fill="white"/>
<path d="M55.4048 38.1592V40.6709H56.9892C56.988 40.4953 56.9521 40.3217 56.8838 40.16C56.8154 39.9983 56.7158 39.8516 56.5907 39.7284C56.4656 39.6051 56.3175 39.5078 56.1548 39.4418C55.9921 39.3759 55.8179 39.3426 55.6424 39.344C55.555 39.3403 55.4677 39.344 55.3811 39.344H38.2581C37.4064 39.344 36.5509 39.3122 35.7028 39.344H35.6673L36.4599 40.1366V30.9601L35.6673 31.7527H48.9946C49.1256 31.7527 49.2521 31.7564 49.3831 31.7645C49.4571 31.7682 49.5311 31.7727 49.6007 31.7801C49.6926 31.7748 49.7847 31.7841 49.8738 31.8074C49.8301 31.7719 49.7191 31.7838 49.8264 31.7993C49.8619 31.803 49.9004 31.8112 49.9337 31.8149C50.0129 31.8267 50.0921 31.8422 50.1713 31.8585C50.3296 31.8903 50.4843 31.9258 50.6427 31.9695C50.7907 32.0095 50.932 32.0524 51.0741 32.1005C51.1415 32.1242 51.2088 32.1479 51.2724 32.1745C51.3588 32.1929 51.4418 32.2248 51.5181 32.2692C51.51 32.2611 51.3435 32.19 51.4745 32.2537C51.5063 32.2692 51.5381 32.2811 51.5692 32.2973C51.6328 32.3247 51.6957 32.3566 51.7594 32.3884C51.9022 32.4624 52.0406 32.5312 52.1753 32.6104C52.4381 32.765 52.6921 32.9343 52.936 33.1173C53.0271 33.1846 52.788 32.9945 52.9205 33.1055C52.9486 33.1291 52.976 33.1491 52.9997 33.1728C53.0552 33.2165 53.107 33.2601 53.1581 33.3075C53.2772 33.4104 53.3882 33.5177 53.4985 33.6242C53.5976 33.7234 53.6924 33.8226 53.7834 33.9254L53.9381 34.1038L54.0054 34.183C54.0209 34.2029 54.1438 34.3376 54.0572 34.2466C53.9706 34.1556 54.1164 34.3295 54.1364 34.3539C54.1837 34.4176 54.2274 34.4805 54.2711 34.5441C54.3584 34.6751 54.4413 34.8053 54.5205 34.94C54.592 35.0589 54.6593 35.1823 54.7225 35.31C54.7543 35.3737 54.7861 35.4366 54.8135 35.5002C54.8409 35.5639 54.9245 35.6749 54.9208 35.7378C54.9208 35.6549 54.869 35.6068 54.9008 35.6941C54.9127 35.726 54.9282 35.7578 54.9408 35.7933C54.9682 35.8673 54.9963 35.9413 55.0237 36.0153C55.0755 36.1633 55.1229 36.3165 55.1665 36.4712C55.2494 36.7761 55.2975 37.081 55.3567 37.394C55.353 37.374 55.3367 37.2038 55.3486 37.3466L55.3604 37.4539C55.3685 37.5279 55.3723 37.6019 55.3804 37.6715C55.3982 37.8359 55.4062 38.0012 55.4041 38.1666C55.4008 38.2727 55.4189 38.3783 55.4573 38.4772C55.4956 38.5762 55.5535 38.6664 55.6273 38.7426C55.7012 38.8188 55.7897 38.8794 55.8874 38.9207C55.9851 38.9621 56.0902 38.9834 56.1963 38.9834C56.3024 38.9834 56.4074 38.9621 56.5052 38.9207C56.6029 38.8794 56.6913 38.8188 56.7652 38.7426C56.8391 38.6664 56.8969 38.5762 56.9353 38.4772C56.9736 38.3783 56.9917 38.2727 56.9885 38.1666C56.9838 36.1158 56.1928 34.1449 54.7785 32.6598C53.3642 31.1747 51.4342 30.2886 49.3861 30.1838C49.0612 30.1683 48.7363 30.172 48.4115 30.172H38.8006C37.7742 30.172 36.744 30.152 35.7146 30.172H35.6673C35.4581 30.1752 35.2583 30.2598 35.1104 30.4077C34.9625 30.5556 34.8779 30.7553 34.8747 30.9645V40.141C34.8779 40.3502 34.9625 40.5499 35.1104 40.6979C35.2583 40.8458 35.4581 40.9303 35.6673 40.9336H53.4319C54.1719 40.9336 54.9179 40.9454 55.6587 40.9336C55.706 40.9336 55.7578 40.9654 55.6624 40.9299C55.6268 40.918 55.4403 40.8226 55.5514 40.9018C55.5358 40.8899 55.413 40.7752 55.4995 40.8699C55.3885 40.7508 55.4255 40.7745 55.4559 40.83L55.4085 40.7345C55.3967 40.608 55.3967 40.5865 55.4004 40.679C55.3971 40.7851 55.4152 40.8907 55.4536 40.9897C55.4919 41.0886 55.5498 41.1789 55.6236 41.2551C55.6975 41.3312 55.786 41.3918 55.8837 41.4332C55.9814 41.4745 56.0865 41.4958 56.1926 41.4958C56.2987 41.4958 56.4037 41.4745 56.5015 41.4332C56.5992 41.3918 56.6876 41.3312 56.7615 41.2551C56.8354 41.1789 56.8932 41.0886 56.9316 40.9897C56.9699 40.8907 56.988 40.7851 56.9848 40.679V38.1644C56.9853 37.9547 56.9025 37.7535 56.7546 37.605C56.6814 37.5314 56.5944 37.473 56.4986 37.433C56.4028 37.3931 56.3001 37.3724 56.1963 37.3722C55.9867 37.3717 55.7854 37.4545 55.6369 37.6023C55.4883 37.7502 55.4046 37.951 55.4041 38.1607L55.4048 38.1592Z" fill="white"/>
</g>
<defs>
<clipPath id="clip0_228_137">
<rect width="75" height="75" fill="white" transform="translate(0.5 0.5)"/>
</clipPath>
</defs>
</svg>
