<svg width="76" height="76" viewBox="0 0 76 76" fill="none" xmlns="http://www.w3.org/2000/svg">
<g clip-path="url(#clip0_228_121)">
<path d="M38 75.5C58.7107 75.5 75.5 58.7107 75.5 38C75.5 17.2893 58.7107 0.5 38 0.5C17.2893 0.5 0.5 17.2893 0.5 38C0.5 58.7107 17.2893 75.5 38 75.5Z" fill="#B0D9B1"/>
<path d="M45.3783 21C46.3842 21.0293 47.3685 21.2996 48.2483 21.7881C49.1282 22.2766 49.878 22.9691 50.4348 23.8074C51.6657 25.6266 52.3236 27.7727 52.3236 29.9693C52.3236 32.1658 51.6657 34.3119 50.4348 36.1311C49.5736 37.3777 48.3155 38.2957 46.8656 38.7356V53.2249C46.8656 53.6188 46.7091 53.9966 46.4306 54.2751C46.152 54.5537 45.7742 54.7101 45.3803 54.7101C44.9864 54.7101 44.6086 54.5537 44.3301 54.2751C44.0515 53.9966 43.895 53.6188 43.895 53.2249V38.7356C42.4449 38.2959 41.1868 37.3773 40.3265 36.1298C39.0957 34.3109 38.4378 32.1651 38.4378 29.9689C38.4378 27.7728 39.0957 25.6269 40.3265 23.8081C40.8828 22.9693 41.6325 22.2764 42.5125 21.7877C43.3924 21.2991 44.3769 21.0289 45.383 21H45.3783ZM29.1718 23.0974C29.1718 22.7019 29.3289 22.3226 29.6086 22.0429C29.8883 21.7632 30.2676 21.6061 30.6631 21.6061C31.0587 21.6061 31.438 21.7632 31.7177 22.0429C31.9974 22.3226 32.1545 22.7019 32.1545 23.0974V36.2444C32.8034 35.9537 33.3549 35.4822 33.7429 34.8863C34.1309 34.2903 34.339 33.5953 34.3423 32.8842V23.0974C34.3423 22.7019 34.4994 22.3226 34.7791 22.0429C35.0587 21.7632 35.4381 21.6061 35.8336 21.6061C36.2291 21.6061 36.6085 21.7632 36.8881 22.0429C37.1678 22.3226 37.3249 22.7019 37.3249 23.0974V32.8822C37.3211 34.3888 36.8083 35.85 35.8697 37.0286C34.9312 38.2072 33.622 39.0342 32.1545 39.3754V52.6194C32.1545 53.015 31.9974 53.3943 31.7177 53.674C31.438 53.9536 31.0587 54.1108 30.6631 54.1108C30.2676 54.1108 29.8883 53.9536 29.6086 53.674C29.3289 53.3943 29.1718 53.015 29.1718 52.6194V39.3754C27.704 39.0345 26.3945 38.2076 25.4557 37.0289C24.5169 35.8503 24.0039 34.389 24 32.8822V23.0974C24 22.7019 24.1571 22.3226 24.4368 22.0429C24.7165 21.7632 25.0958 21.6061 25.4913 21.6061C25.8869 21.6061 26.2662 21.7632 26.5459 22.0429C26.8255 22.3226 26.9827 22.7019 26.9827 23.0974V32.8822C26.9861 33.5936 27.1943 34.2889 27.5826 34.8851C27.9708 35.4812 28.5225 35.9529 29.1718 36.2437V23.0974Z" fill="white"/>
</g>
<defs>
<clipPath id="clip0_228_121">
<rect width="75" height="75" fill="white" transform="translate(0.5 0.5)"/>
</clipPath>
</defs>
</svg>
