<svg width="76" height="76" viewBox="0 0 76 76" fill="none" xmlns="http://www.w3.org/2000/svg">
<g clip-path="url(#clip0_228_132)">
<path d="M38 75.5C58.7107 75.5 75.5 58.7107 75.5 38C75.5 17.2893 58.7107 0.5 38 0.5C17.2893 0.5 0.5 17.2893 0.5 38C0.5 58.7107 17.2893 75.5 38 75.5Z" fill="#B0D9B1"/>
<path d="M56 38.5623V36.8754C55.9995 36.6719 55.9438 36.4723 55.8388 36.2979C55.7338 36.1236 55.5835 35.981 55.4038 35.8854L39.1254 27.2V26.75H44.7507C44.9745 26.7514 45.1936 26.686 45.38 26.5623C45.5664 26.4386 45.7117 26.2621 45.7974 26.0553C45.883 25.8486 45.9051 25.621 45.8607 25.4017C45.8164 25.1824 45.7077 24.9813 45.5485 24.824L44.0862 23.3754L45.5485 21.9239C45.707 21.7665 45.815 21.5654 45.8589 21.3464C45.9028 21.1274 45.8805 20.9003 45.7949 20.694C45.7092 20.4877 45.5642 20.3115 45.3781 20.1879C45.192 20.0643 44.9734 19.9989 44.75 20H38C37.8523 20 37.7059 20.0291 37.5695 20.0857C37.433 20.1423 37.3089 20.2252 37.2045 20.3297C37.1001 20.4342 37.0172 20.5582 36.9608 20.6948C36.9043 20.8313 36.8753 20.9776 36.8754 21.1254V27.2L20.5962 35.8854C20.4165 35.981 20.2662 36.1236 20.1612 36.2979C20.0562 36.4723 20.0005 36.6719 20 36.8754V38.5631C20.0032 39.3053 20.2161 40.0316 20.6142 40.6581C21.0123 41.2846 21.5793 41.7859 22.25 42.104V53.75H21.1254C20.8319 53.7574 20.553 53.8792 20.3481 54.0894C20.1432 54.2996 20.0285 54.5815 20.0285 54.875C20.0285 55.1686 20.1432 55.4505 20.3481 55.6606C20.553 55.8708 20.8319 55.9926 21.1254 56H54.8754C55.1688 55.9926 55.4477 55.8708 55.6526 55.6606C55.8576 55.4505 55.9723 55.1686 55.9723 54.875C55.9723 54.5815 55.8576 54.2996 55.6526 54.0894C55.4477 53.8792 55.1688 53.7574 54.8754 53.75H53.75V42.104C54.4208 41.7858 54.9879 41.2845 55.386 40.6578C55.7841 40.0312 55.997 39.3047 56 38.5623ZM39.1254 44.39C39.0512 44.165 38.908 43.9692 38.7161 43.8304C38.5242 43.6916 38.2934 43.6168 38.0565 43.6168C37.8197 43.6168 37.5888 43.6916 37.3969 43.8304C37.205 43.9692 37.0618 44.165 36.9877 44.39C35.4692 48.9577 28.4917 50.0154 24.613 52.0285V42.5C25.4663 42.3828 26.2572 41.9875 26.863 41.3754C27.2297 41.7495 27.6672 42.0467 28.1501 42.2495C28.633 42.4524 29.1516 42.5569 29.6754 42.5569C30.1992 42.5569 30.7177 42.4524 31.2006 42.2495C31.6835 42.0467 32.1211 41.7495 32.4877 41.3754C32.8543 41.7496 33.2919 42.0469 33.7749 42.2498C34.2579 42.4528 34.7765 42.5573 35.3004 42.5573C35.8242 42.5573 36.3429 42.4528 36.8258 42.2498C37.3088 42.0469 37.7464 41.7496 38.113 41.3754C38.4797 41.7496 38.9173 42.0469 39.4003 42.2498C39.8832 42.4528 40.4018 42.5573 40.9257 42.5573C41.4496 42.5573 41.9682 42.4528 42.4512 42.2498C42.9342 42.0469 43.3718 41.7496 43.7384 41.3754C44.105 41.7496 44.5427 42.0469 45.0256 42.2498C45.5086 42.4528 46.0272 42.5573 46.5511 42.5573C47.075 42.5573 47.5936 42.4528 48.0765 42.2498C48.5595 42.0469 48.9971 41.7496 49.3638 41.3754C49.9696 41.9876 50.7605 42.3829 51.6138 42.5V52.0623C47.5623 49.9139 40.5985 48.9915 39.1254 44.39ZM22.25 37.55L38 29.144L53.75 37.55V38.5623C53.7546 38.7868 53.7144 39.01 53.6317 39.2188C53.549 39.4276 53.4255 39.6178 53.2683 39.7782C53.1112 39.9386 52.9236 40.066 52.7166 40.153C52.5095 40.2401 52.2872 40.2849 52.0627 40.2849C51.8381 40.2849 51.6158 40.2401 51.4088 40.153C51.2018 40.066 51.0142 39.9386 50.8571 39.7782C50.6999 39.6178 50.5764 39.4276 50.4937 39.2188C50.4109 39.01 50.3707 38.7868 50.3754 38.5623C50.3679 38.2689 50.2462 37.99 50.036 37.785C49.8258 37.5801 49.5439 37.4654 49.2504 37.4654C48.9568 37.4654 48.6749 37.5801 48.4647 37.785C48.2546 37.99 48.1328 38.2689 48.1254 38.5623C48.13 38.7868 48.0898 39.01 48.0071 39.2188C47.9244 39.4276 47.8008 39.6178 47.6437 39.7782C47.4865 39.9386 47.299 40.066 47.0919 40.153C46.8849 40.2401 46.6626 40.2849 46.438 40.2849C46.2135 40.2849 45.9912 40.2401 45.7842 40.153C45.5771 40.066 45.3896 39.9386 45.2324 39.7782C45.0753 39.6178 44.9517 39.4276 44.869 39.2188C44.7863 39.01 44.7461 38.7868 44.7507 38.5623C44.7507 38.264 44.6322 37.9778 44.4212 37.7668C44.2102 37.5559 43.9241 37.4373 43.6257 37.4373C43.3274 37.4373 43.0412 37.5559 42.8302 37.7668C42.6192 37.9778 42.5007 38.264 42.5007 38.5623C42.5007 39.0099 42.3229 39.4392 42.0064 39.7557C41.6899 40.0722 41.2606 40.25 40.813 40.25C40.3654 40.25 39.9362 40.0722 39.6197 39.7557C39.3032 39.4392 39.1254 39.0099 39.1254 38.5623C39.1179 38.2689 38.9962 37.99 38.786 37.785C38.5758 37.5801 38.2939 37.4654 38.0004 37.4654C37.7068 37.4654 37.4249 37.5801 37.2147 37.785C37.0046 37.99 36.8828 38.2689 36.8754 38.5623C36.88 38.7868 36.8398 39.01 36.7571 39.2188C36.6744 39.4276 36.5508 39.6178 36.3937 39.7782C36.2365 39.9386 36.049 40.066 35.8419 40.153C35.6349 40.2401 35.4126 40.2849 35.188 40.2849C34.9635 40.2849 34.7412 40.2401 34.5342 40.153C34.3271 40.066 34.1396 39.9386 33.9824 39.7782C33.8253 39.6178 33.7017 39.4276 33.619 39.2188C33.5363 39.01 33.4961 38.7868 33.5007 38.5623C33.5007 38.264 33.3822 37.9778 33.1712 37.7668C32.9602 37.5559 32.6741 37.4373 32.3757 37.4373C32.0774 37.4373 31.7912 37.5559 31.5802 37.7668C31.3692 37.9778 31.2507 38.264 31.2507 38.5623C31.2507 39.0099 31.0729 39.4392 30.7564 39.7557C30.4399 40.0722 30.0106 40.25 29.563 40.25C29.1154 40.25 28.6862 40.0722 28.3697 39.7557C28.0532 39.4392 27.8754 39.0099 27.8754 38.5623C27.8754 38.264 27.7568 37.9778 27.5459 37.7668C27.3349 37.5559 27.0487 37.4373 26.7504 37.4373C26.452 37.4373 26.1658 37.5559 25.9549 37.7668C25.7439 37.9778 25.6254 38.264 25.6254 38.5623C25.6162 39.0038 25.4345 39.4241 25.119 39.7331C24.8036 40.0421 24.3796 40.2152 23.938 40.2152C23.4965 40.2152 23.0725 40.0421 22.7571 39.7331C22.4416 39.4241 22.2598 39.0038 22.2507 38.5623L22.25 37.55Z" fill="white"/>
<path d="M26.0862 53.75H49.993H49.9923M39.1254 24.5H42.0385H42.0392C41.8459 24.3827 41.6862 24.2175 41.5753 24.0205C41.4644 23.8234 41.4062 23.6011 41.4062 23.375C41.4062 23.1489 41.4644 22.9266 41.5753 22.7296C41.6862 22.5325 41.8459 22.3674 42.0392 22.25M56 38.5623V36.8754C55.9995 36.6719 55.9438 36.4723 55.8388 36.2979C55.7338 36.1236 55.5835 35.981 55.4038 35.8854L39.1254 27.2V26.75H44.7507C44.9745 26.7514 45.1936 26.686 45.38 26.5623C45.5664 26.4386 45.7117 26.2621 45.7974 26.0553C45.883 25.8486 45.9051 25.621 45.8607 25.4017C45.8164 25.1824 45.7077 24.9813 45.5485 24.824L44.0862 23.3754L45.5485 21.9239C45.707 21.7665 45.815 21.5654 45.8589 21.3464C45.9028 21.1274 45.8805 20.9003 45.7949 20.694C45.7092 20.4877 45.5642 20.3115 45.3781 20.1879C45.192 20.0643 44.9734 19.9989 44.75 20H38C37.8523 20 37.7059 20.0291 37.5695 20.0857C37.433 20.1423 37.3089 20.2252 37.2045 20.3297C37.1001 20.4342 37.0172 20.5582 36.9608 20.6948C36.9043 20.8313 36.8753 20.9776 36.8754 21.1254V27.2L20.5962 35.8854C20.4165 35.981 20.2662 36.1236 20.1612 36.2979C20.0562 36.4723 20.0005 36.6719 20 36.8754V38.5631C20.0032 39.3053 20.2161 40.0316 20.6142 40.6581C21.0123 41.2846 21.5793 41.7859 22.25 42.104V53.75H21.1254C20.8319 53.7574 20.553 53.8792 20.3481 54.0894C20.1432 54.2996 20.0285 54.5815 20.0285 54.875C20.0285 55.1686 20.1432 55.4505 20.3481 55.6606C20.553 55.8708 20.8319 55.9926 21.1254 56H54.8754C55.1688 55.9926 55.4477 55.8708 55.6526 55.6606C55.8576 55.4505 55.9723 55.1686 55.9723 54.875C55.9723 54.5815 55.8576 54.2996 55.6526 54.0894C55.4477 53.8792 55.1688 53.7574 54.8754 53.75H53.75V42.104C54.4208 41.7858 54.9879 41.2845 55.386 40.6578C55.7841 40.0312 55.997 39.3047 56 38.5623ZM39.1254 44.39C39.0512 44.165 38.908 43.9692 38.7161 43.8304C38.5242 43.6916 38.2934 43.6168 38.0565 43.6168C37.8197 43.6168 37.5888 43.6916 37.3969 43.8304C37.205 43.9692 37.0618 44.165 36.9877 44.39C35.4692 48.9577 28.4917 50.0154 24.613 52.0285V42.5C25.4663 42.3828 26.2572 41.9875 26.863 41.3754C27.2297 41.7495 27.6672 42.0467 28.1501 42.2495C28.633 42.4524 29.1516 42.5569 29.6754 42.5569C30.1992 42.5569 30.7177 42.4524 31.2006 42.2495C31.6835 42.0467 32.1211 41.7495 32.4877 41.3754C32.8543 41.7496 33.2919 42.0469 33.7749 42.2498C34.2579 42.4528 34.7765 42.5573 35.3004 42.5573C35.8242 42.5573 36.3429 42.4528 36.8258 42.2498C37.3088 42.0469 37.7464 41.7496 38.113 41.3754C38.4797 41.7496 38.9173 42.0469 39.4003 42.2498C39.8832 42.4528 40.4018 42.5573 40.9257 42.5573C41.4496 42.5573 41.9682 42.4528 42.4512 42.2498C42.9342 42.0469 43.3718 41.7496 43.7384 41.3754C44.105 41.7496 44.5427 42.0469 45.0256 42.2498C45.5086 42.4528 46.0272 42.5573 46.5511 42.5573C47.075 42.5573 47.5936 42.4528 48.0765 42.2498C48.5595 42.0469 48.9971 41.7496 49.3638 41.3754C49.9696 41.9876 50.7605 42.3829 51.6138 42.5V52.0623C47.5623 49.9139 40.5985 48.9915 39.1254 44.39ZM22.25 37.55L38 29.144L53.75 37.55V38.5623C53.7546 38.7868 53.7144 39.01 53.6317 39.2188C53.549 39.4276 53.4255 39.6178 53.2683 39.7782C53.1112 39.9386 52.9236 40.066 52.7166 40.153C52.5095 40.2401 52.2872 40.2849 52.0627 40.2849C51.8381 40.2849 51.6158 40.2401 51.4088 40.153C51.2018 40.066 51.0142 39.9386 50.8571 39.7782C50.6999 39.6178 50.5764 39.4276 50.4937 39.2188C50.4109 39.01 50.3707 38.7868 50.3754 38.5623C50.3679 38.2689 50.2462 37.99 50.036 37.785C49.8258 37.5801 49.5439 37.4654 49.2504 37.4654C48.9568 37.4654 48.6749 37.5801 48.4647 37.785C48.2546 37.99 48.1328 38.2689 48.1254 38.5623C48.13 38.7868 48.0898 39.01 48.0071 39.2188C47.9244 39.4276 47.8008 39.6178 47.6437 39.7782C47.4865 39.9386 47.299 40.066 47.0919 40.153C46.8849 40.2401 46.6626 40.2849 46.438 40.2849C46.2135 40.2849 45.9912 40.2401 45.7842 40.153C45.5771 40.066 45.3896 39.9386 45.2324 39.7782C45.0753 39.6178 44.9517 39.4276 44.869 39.2188C44.7863 39.01 44.7461 38.7868 44.7507 38.5623C44.7507 38.264 44.6322 37.9778 44.4212 37.7668C44.2102 37.5559 43.9241 37.4373 43.6257 37.4373C43.3274 37.4373 43.0412 37.5559 42.8302 37.7668C42.6192 37.9778 42.5007 38.264 42.5007 38.5623C42.5007 39.0099 42.3229 39.4392 42.0064 39.7557C41.6899 40.0722 41.2606 40.25 40.813 40.25C40.3654 40.25 39.9362 40.0722 39.6197 39.7557C39.3032 39.4392 39.1254 39.0099 39.1254 38.5623C39.1179 38.2689 38.9962 37.99 38.786 37.785C38.5758 37.5801 38.2939 37.4654 38.0004 37.4654C37.7068 37.4654 37.4249 37.5801 37.2147 37.785C37.0046 37.99 36.8828 38.2689 36.8754 38.5623C36.88 38.7868 36.8398 39.01 36.7571 39.2188C36.6744 39.4276 36.5508 39.6178 36.3937 39.7782C36.2365 39.9386 36.049 40.066 35.8419 40.153C35.6349 40.2401 35.4126 40.2849 35.188 40.2849C34.9635 40.2849 34.7412 40.2401 34.5342 40.153C34.3271 40.066 34.1396 39.9386 33.9824 39.7782C33.8253 39.6178 33.7017 39.4276 33.619 39.2188C33.5363 39.01 33.4961 38.7868 33.5007 38.5623C33.5007 38.264 33.3822 37.9778 33.1712 37.7668C32.9602 37.5559 32.6741 37.4373 32.3757 37.4373C32.0774 37.4373 31.7912 37.5559 31.5802 37.7668C31.3692 37.9778 31.2507 38.264 31.2507 38.5623C31.2507 39.0099 31.0729 39.4392 30.7564 39.7557C30.4399 40.0722 30.0106 40.25 29.563 40.25C29.1154 40.25 28.6862 40.0722 28.3697 39.7557C28.0532 39.4392 27.8754 39.0099 27.8754 38.5623C27.8754 38.264 27.7568 37.9778 27.5459 37.7668C27.3349 37.5559 27.0487 37.4373 26.7504 37.4373C26.452 37.4373 26.1658 37.5559 25.9549 37.7668C25.7439 37.9778 25.6254 38.264 25.6254 38.5623C25.6162 39.0038 25.4345 39.4241 25.119 39.7331C24.8036 40.0421 24.3796 40.2152 23.938 40.2152C23.4965 40.2152 23.0725 40.0421 22.7571 39.7331C22.4416 39.4241 22.2598 39.0038 22.2507 38.5623L22.25 37.55Z" stroke="white"/>
</g>
<defs>
<clipPath id="clip0_228_132">
<rect width="75" height="75" fill="white" transform="translate(0.5 0.5)"/>
</clipPath>
</defs>
</svg>
